<svg width="500" height="541" viewBox="0 0 500 541" fill="none" xmlns="http://www.w3.org/2000/svg">
<path d="M165.539 327.98H69.1201V510.243H165.539V327.98Z" fill="#E0E0E0"/>
<path d="M136.924 327.98H40.5049V510.243H136.924V327.98Z" fill="#F5F5F5"/>
<path d="M129.826 365.496H47.0649V336.605H129.827L129.826 365.496ZM48.0819 364.48H128.81V337.622H48.0819V364.48Z" fill="#E0E0E0"/>
<path d="M99.7618 342.871H78.2498C75.5168 342.871 73.3018 340.656 73.3018 337.923V337.114H104.71V337.923C104.71 340.655 102.495 342.871 99.7618 342.871Z" fill="#EBEBEB"/>
<path d="M129.826 402.196H47.0649V373.305H129.827L129.826 402.196ZM48.0819 401.179H128.81V374.321H48.0819V401.179Z" fill="#E0E0E0"/>
<path d="M99.7618 379.57H78.2498C75.5168 379.57 73.3018 377.355 73.3018 374.622V373.813H104.71V374.622C104.71 377.355 102.495 379.57 99.7618 379.57Z" fill="#EBEBEB"/>
<path d="M129.826 438.896H47.0649V410.005H129.827L129.826 438.896ZM48.0819 437.879H128.81V411.021H48.0819V437.879Z" fill="#E0E0E0"/>
<path d="M99.7618 416.27H78.2498C75.5168 416.27 73.3018 414.055 73.3018 411.322V410.513H104.71V411.322C104.71 414.054 102.495 416.27 99.7618 416.27Z" fill="#EBEBEB"/>
<path d="M129.826 475.595H47.0649V446.704H129.827L129.826 475.595ZM48.0819 474.578H128.81V447.72H48.0819V474.578Z" fill="#E0E0E0"/>
<path d="M99.7617 452.97H78.2507C75.5177 452.97 73.3027 450.755 73.3027 448.022V447.213H104.711V448.022C104.71 450.754 102.495 452.97 99.7617 452.97Z" fill="#EBEBEB"/>
<path d="M140.957 321.158H36.228V330.237H140.957V321.158Z" fill="#EBEBEB"/>
<path d="M172.45 321.158H140.957V330.237H172.45V321.158Z" fill="#E0E0E0"/>
<path d="M45.5719 510.243H40.5049V519.553H45.5719V510.243Z" fill="#E0E0E0"/>
<path d="M76.88 510.243H71.813V519.553H76.88V510.243Z" fill="#E0E0E0"/>
<path d="M134.065 510.243H128.998V519.553H134.065V510.243Z" fill="#E0E0E0"/>
<path d="M162.658 510.243H157.591V519.553H162.658V510.243Z" fill="#E0E0E0"/>
<path d="M129.777 296.921L139.537 321.889L133.469 321.861L128.607 306.517L129.777 296.921Z" fill="#E0E0E0"/>
<path d="M96.4482 273.851L93.0942 321.691L127.73 322.414L131.627 273.851H96.4482Z" fill="#EBEBEB"/>
<path d="M99.9141 277.703L97.1211 317.524L122.869 318.73L126.467 277.467L99.9141 277.703Z" fill="#FAFAFA"/>
<path d="M105.564 283.334L103.475 311.325H117.679L120.185 283.334H105.564Z" fill="#E0E0E0"/>
<path d="M449.928 88.2539H320.646V320.501H449.928V88.2539Z" fill="#EBEBEB"/>
<path d="M443.432 94.9878H325.813V313.581H443.432V94.9878Z" fill="#FAFAFA"/>
<path d="M455.397 322.594L449.929 320.5V84.3149H455.397V322.594Z" fill="#E0E0E0"/>
<path d="M445.986 157.871H325.813V160.199H445.986V157.871Z" fill="#E0E0E0"/>
<path d="M445.986 209.927H325.813V212.255H445.986V209.927Z" fill="#E0E0E0"/>
<path d="M445.986 261.983H325.813V264.311H445.986V261.983Z" fill="#E0E0E0"/>
<path d="M381.65 159.035V319.78H387.593V159.035H381.65Z" fill="#E0E0E0"/>
<path d="M351.153 94.9878H348.461V159.035H351.153V94.9878Z" fill="#E0E0E0"/>
<path d="M374.372 94.9878H371.68V159.035H374.372V94.9878Z" fill="#E0E0E0"/>
<path d="M397.59 94.9878H394.898V159.035H397.59V94.9878Z" fill="#E0E0E0"/>
<path d="M420.809 94.9878H418.117V159.035H420.809V94.9878Z" fill="#E0E0E0"/>
<path d="M320.646 84.3149H315.178V321.938H320.646V84.3149Z" fill="#E0E0E0"/>
<path d="M455.396 81.917H315.178V88.254H455.396V81.917Z" fill="#E0E0E0"/>
<path d="M459.098 323.375H311.299V329.279H459.098V323.375Z" fill="#E0E0E0"/>
<path d="M449.929 320.5L459.098 323.375H311.299L320.646 320.5H449.929Z" fill="#E0E0E0"/>
<path d="M120.625 96.2802C122.913 94.8982 125.348 93.8492 127.86 93.1362L129.35 85.9752L141.449 85.7632L143.19 92.8672C145.726 93.4922 148.197 94.4542 150.531 95.7552L156.646 91.7472L165.351 100.153L161.561 106.404C162.944 108.692 163.992 111.129 164.705 113.641L171.865 115.131L172.078 127.23L164.974 128.972C164.349 131.507 163.387 133.977 162.086 136.312L166.093 142.427L157.689 151.133L151.438 147.343C149.15 148.726 146.714 149.773 144.202 150.487L142.711 157.648L130.612 157.86L128.87 150.756C126.335 150.131 123.864 149.169 121.529 147.868L115.414 151.876L106.708 143.471L110.498 137.22C109.115 134.932 108.067 132.497 107.354 129.984L100.193 128.494L99.9814 116.395L107.085 114.653C107.71 112.118 108.672 109.647 109.973 107.313L105.965 101.198L114.369 92.4922L120.625 96.2802ZM127.075 112.398C122.095 117.556 122.239 125.774 127.398 130.753C132.556 135.733 140.774 135.588 145.753 130.43C150.732 125.272 150.588 117.054 145.43 112.075C140.272 107.096 132.054 107.24 127.075 112.398Z" fill="#E0E0E0"/>
<path d="M127.075 112.398C127.075 112.398 127.754 111.441 129.492 110.277C131.198 109.141 134.18 107.876 137.961 108.275C139.823 108.484 141.86 109.091 143.717 110.32C145.554 111.548 147.288 113.296 148.372 115.564C148.942 116.678 149.338 117.916 149.553 119.208C149.786 120.497 149.82 121.854 149.626 123.204C149.297 125.916 148.015 128.588 146.022 130.688C143.993 132.754 141.367 134.13 138.668 134.555C137.326 134.797 135.968 134.811 134.671 134.623C133.372 134.454 132.121 134.102 130.988 133.571C128.682 132.568 126.874 130.896 125.582 129.103C124.289 127.29 123.611 125.275 123.337 123.422C122.805 119.657 123.965 116.633 125.041 114.889C126.142 113.11 127.075 112.398 127.075 112.398C127.145 112.457 126.291 113.25 125.291 115.032C124.313 116.783 123.279 119.737 123.856 123.342C124.153 125.117 124.83 127.032 126.085 128.745C127.338 130.438 129.073 132.013 131.267 132.944C132.345 133.44 133.532 133.765 134.764 133.918C135.993 134.089 137.278 134.07 138.546 133.836C141.098 133.426 143.569 132.122 145.487 130.171C147.368 128.185 148.584 125.671 148.904 123.106C149.093 121.83 149.067 120.546 148.852 119.324C148.656 118.1 148.29 116.924 147.756 115.865C146.748 113.706 145.114 112.028 143.378 110.834C141.623 109.64 139.685 109.031 137.901 108.797C134.278 108.347 131.362 109.484 129.646 110.523C127.899 111.585 127.137 112.466 127.075 112.398Z" fill="#E0E0E0"/>
<path d="M120.625 96.2801C120.625 96.2901 120.49 96.2191 120.222 96.0671C119.928 95.8971 119.534 95.6691 119.023 95.3741C117.93 94.7281 116.355 93.7981 114.311 92.5911L114.458 92.5721C112.319 94.8131 109.506 97.7611 106.104 101.326L106.126 101.092C107.347 102.94 108.706 104.993 110.158 107.191L110.231 107.301L110.167 107.418C108.979 109.57 107.98 112.021 107.326 114.71L107.291 114.853L107.146 114.889C104.933 115.438 102.538 116.032 100.047 116.651L100.249 116.389C100.325 120.198 100.405 124.242 100.489 128.486L100.256 128.205C102.473 128.662 104.916 129.165 107.419 129.681L107.601 129.719L107.652 129.898C108.317 132.234 109.356 134.717 110.775 137.052L110.876 137.218L110.775 137.385C109.603 139.324 108.31 141.463 106.994 143.641L106.941 143.23C109.678 145.867 112.631 148.71 115.657 151.625L115.226 151.585C117.129 150.335 119.22 148.962 121.337 147.571L121.516 147.454L121.703 147.558C123.837 148.748 126.331 149.763 128.957 150.406L129.169 150.457L129.221 150.669C129.768 152.894 130.365 155.321 130.967 157.772L130.606 157.494C134.437 157.425 138.542 157.351 142.705 157.277L142.35 157.571C142.82 155.309 143.327 152.868 143.839 150.41L143.885 150.189L144.101 150.128C146.484 149.454 148.952 148.412 151.239 147.027L151.245 147.023L151.44 146.907L151.63 147.023C153.729 148.296 155.815 149.561 157.881 150.814L157.421 150.873C160.262 147.932 163.065 145.03 165.828 142.17L165.785 142.628C164.437 140.569 163.102 138.53 161.78 136.511L161.659 136.326L161.767 136.133C163.052 133.831 164.007 131.382 164.624 128.884L164.677 128.672L164.889 128.621C167.292 128.034 169.658 127.456 171.994 126.885L171.724 127.235C171.656 123.105 171.589 119.07 171.523 115.136L171.795 115.465C169.366 114.957 166.981 114.457 164.637 113.966L164.439 113.924L164.384 113.73C163.659 111.165 162.601 108.755 161.285 106.57L161.184 106.402L161.285 106.236C162.588 104.095 163.852 102.019 165.085 99.9921L165.135 100.375C162.079 97.4121 159.194 94.6151 156.447 91.9521L156.801 91.9851C154.647 93.3891 152.626 94.7071 150.677 95.9781L150.541 96.0671L150.401 95.9881C147.964 94.6251 145.521 93.7031 143.131 93.1041L142.986 93.0681L142.952 92.9251C142.328 90.3411 141.765 88.0141 141.234 85.8161L141.452 85.9831C136.764 86.0451 132.771 86.0971 129.352 86.1421L129.512 86.0091C128.899 88.8651 128.395 91.2081 127.976 93.1601L127.96 93.2321L127.891 93.2511C125.331 93.9661 123.53 94.8011 122.359 95.3791C121.8 95.6711 121.371 95.8951 121.058 96.0591C120.764 96.2211 120.625 96.2901 120.625 96.2801C120.626 96.2711 120.763 96.1751 121.028 96.0051C121.305 95.8351 121.724 95.5801 122.303 95.2701C123.461 94.6541 125.256 93.7771 127.827 93.0201L127.743 93.1101C128.137 91.1531 128.61 88.8041 129.187 85.9401L129.213 85.8101L129.348 85.8071C132.766 85.7321 136.759 85.6451 141.446 85.5421L141.621 85.5381L141.664 85.7101C142.21 87.9051 142.787 90.2281 143.429 92.8071L143.25 92.6281C145.683 93.2221 148.174 94.1451 150.663 95.5201L150.387 95.5301C152.33 94.2501 154.345 92.9221 156.492 91.5071L156.682 91.3821L156.847 91.5411C159.604 94.1921 162.501 96.9781 165.569 99.9281L165.747 100.099L165.619 100.311C164.392 102.342 163.136 104.422 161.84 106.568L161.841 106.235C163.193 108.464 164.282 110.925 165.03 113.546L164.777 113.311C167.122 113.796 169.509 114.29 171.939 114.792L172.207 114.847L172.212 115.121C172.285 119.055 172.36 123.089 172.437 127.219L172.442 127.502L172.167 127.57C169.831 128.145 167.466 128.726 165.065 129.317L165.329 129.053C164.7 131.614 163.725 134.124 162.41 136.485L162.396 136.108C163.72 138.126 165.056 140.163 166.406 142.221L166.567 142.467L166.363 142.679C163.602 145.541 160.8 148.444 157.961 151.387L157.755 151.601L157.501 151.447C155.434 150.194 153.348 148.93 151.249 147.658H151.634L151.627 147.662C149.281 149.083 146.75 150.151 144.307 150.841L144.569 150.559C144.057 153.017 143.549 155.458 143.077 157.719L143.017 158.008L142.721 158.013C138.559 158.084 134.453 158.154 130.622 158.22L130.331 158.225L130.262 157.942C129.662 155.49 129.069 153.063 128.525 150.837L128.789 151.101C126.099 150.44 123.546 149.395 121.363 148.173L121.729 148.16C119.609 149.547 117.516 150.916 115.61 152.162L115.378 152.314L115.179 152.122C112.16 149.2 109.215 146.35 106.484 143.706L106.293 143.521L106.431 143.295C107.754 141.121 109.052 138.986 110.23 137.05V137.382C108.787 134.992 107.734 132.451 107.065 130.064L107.298 130.28C104.796 129.755 102.356 129.242 100.14 128.776L99.9112 128.728L99.9072 128.494C99.8422 124.249 99.7802 120.205 99.7222 116.395L99.7192 116.183L99.9242 116.133C102.419 115.529 104.817 114.948 107.033 114.411L106.854 114.59C107.536 111.86 108.567 109.377 109.788 107.202L109.796 107.428C108.361 105.219 107.02 103.155 105.813 101.297L105.73 101.169L105.835 101.062C109.278 97.5361 112.125 94.6221 114.29 92.4051L114.357 92.3361L114.437 92.3861C116.435 93.6291 117.974 94.5871 119.042 95.2521C119.547 95.5721 119.936 95.8201 120.226 96.0041C120.49 96.1771 120.625 96.2701 120.625 96.2801Z" fill="#E0E0E0"/>
<path d="M195.091 72.6368C196.46 71.8098 197.918 71.1818 199.422 70.7548L200.314 66.4678L207.556 66.3408L208.598 70.5928C210.116 70.9668 211.595 71.5428 212.993 72.3218L216.653 69.9228L221.864 74.9548L219.595 78.6968C220.423 80.0668 221.05 81.5248 221.477 83.0288L225.763 83.9208L225.89 91.1628L221.638 92.2058C221.264 93.7228 220.688 95.2018 219.909 96.5998L222.308 100.261L217.277 105.472L213.535 103.203C212.165 104.031 210.707 104.658 209.204 105.085L208.312 109.372L201.07 109.499L200.028 105.246C198.51 104.872 197.032 104.296 195.634 103.517L191.974 105.916L186.763 100.884L189.032 97.1418C188.204 95.7718 187.577 94.3148 187.15 92.8108L182.864 91.9188L182.737 84.6768L186.99 83.6338C187.364 82.1168 187.94 80.6378 188.719 79.2398L186.32 75.5788L191.351 70.3678L195.091 72.6368ZM198.952 82.2848C195.971 85.3728 196.057 90.2918 199.145 93.2728C202.232 96.2538 207.152 96.1668 210.133 93.0798C213.113 89.9928 213.027 85.0728 209.94 82.0918C206.852 79.1118 201.933 79.1978 198.952 82.2848Z" fill="#F5F5F5"/>
<path d="M198.952 82.2852C198.952 82.2852 199.358 81.7122 200.399 81.0152C201.42 80.3352 203.205 79.5782 205.468 79.8162C206.583 79.9412 207.802 80.3052 208.913 81.0402C210.013 81.7752 211.051 82.8212 211.699 84.1792C212.04 84.8462 212.277 85.5872 212.406 86.3602C212.546 87.1322 212.566 87.9442 212.45 88.7522C212.253 90.3752 211.486 91.9752 210.293 93.2322C209.079 94.4692 207.507 95.2932 205.891 95.5472C205.087 95.6922 204.275 95.7002 203.498 95.5882C202.72 95.4872 201.972 95.2762 201.293 94.9582C199.913 94.3582 198.831 93.3562 198.057 92.2832C197.283 91.1982 196.877 89.9922 196.713 88.8832C196.395 86.6292 197.089 84.8192 197.733 83.7752C198.394 82.7122 198.952 82.2852 198.952 82.2852C198.994 82.3212 198.483 82.7952 197.884 83.8622C197.299 84.9102 196.68 86.6792 197.025 88.8362C197.203 89.8982 197.608 91.0452 198.359 92.0702C199.109 93.0842 200.148 94.0262 201.461 94.5842C202.106 94.8812 202.817 95.0762 203.554 95.1672C204.29 95.2702 205.059 95.2582 205.818 95.1182C207.346 94.8722 208.825 94.0922 209.973 92.9242C211.099 91.7352 211.827 90.2302 212.018 88.6952C212.131 87.9322 212.116 87.1632 211.987 86.4312C211.87 85.6982 211.651 84.9952 211.331 84.3602C210.727 83.0682 209.749 82.0632 208.71 81.3492C207.659 80.6352 206.499 80.2702 205.431 80.1302C203.263 79.8602 201.517 80.5412 200.49 81.1632C199.445 81.7992 198.989 82.3272 198.952 82.2852Z" fill="#F5F5F5"/>
<path d="M195.091 72.637C195.091 72.643 195.01 72.601 194.85 72.51C194.674 72.408 194.438 72.272 194.132 72.095C193.478 71.709 192.535 71.152 191.312 70.429L191.4 70.418C190.12 71.76 188.436 73.524 186.399 75.658L186.412 75.518C187.143 76.624 187.956 77.853 188.826 79.169L188.87 79.235L188.832 79.305C188.121 80.593 187.523 82.06 187.131 83.67L187.11 83.756L187.024 83.777C185.7 84.106 184.266 84.462 182.775 84.832L182.896 84.675C182.942 86.955 182.989 89.376 183.04 91.917L182.901 91.749C184.228 92.023 185.69 92.324 187.189 92.633L187.298 92.656L187.329 92.763C187.727 94.161 188.349 95.648 189.198 97.045L189.258 97.144L189.198 97.244C188.496 98.405 187.723 99.685 186.935 100.989L186.903 100.743C188.541 102.321 190.309 104.023 192.12 105.768L191.862 105.744C193.001 104.996 194.253 104.174 195.52 103.341L195.627 103.271L195.739 103.333C197.017 104.045 198.509 104.653 200.081 105.038L200.208 105.069L200.239 105.196C200.566 106.528 200.924 107.98 201.284 109.448L201.068 109.282C203.361 109.241 205.819 109.197 208.31 109.152L208.097 109.328C208.378 107.974 208.682 106.513 208.988 105.042L209.015 104.91L209.145 104.873C210.571 104.47 212.049 103.846 213.418 103.017L213.422 103.015L213.539 102.946L213.653 103.015C214.909 103.777 216.158 104.534 217.395 105.284L217.12 105.319C218.821 103.558 220.499 101.821 222.152 100.109L222.126 100.383C221.319 99.15 220.52 97.93 219.729 96.722L219.656 96.611L219.72 96.496C220.489 95.118 221.061 93.652 221.43 92.157L221.462 92.03L221.589 91.999C223.027 91.647 224.443 91.301 225.842 90.96L225.68 91.17C225.639 88.698 225.599 86.283 225.56 83.928L225.723 84.125C224.269 83.821 222.841 83.521 221.438 83.228L221.319 83.203L221.286 83.087C220.852 81.552 220.219 80.109 219.431 78.801L219.371 78.701L219.431 78.602C220.211 77.32 220.968 76.078 221.706 74.864L221.736 75.093C219.906 73.319 218.179 71.645 216.535 70.051L216.747 70.071C215.458 70.911 214.248 71.7 213.081 72.461L213 72.509L212.916 72.462C211.457 71.646 209.995 71.094 208.564 70.736L208.478 70.714L208.457 70.628C208.083 69.081 207.747 67.688 207.429 66.372L207.559 66.472C204.753 66.509 202.363 66.54 200.316 66.567L200.412 66.487C200.045 68.197 199.744 69.599 199.493 70.768L199.484 70.811L199.443 70.823C197.91 71.251 196.832 71.751 196.131 72.097C195.796 72.272 195.54 72.406 195.352 72.504C195.174 72.602 195.091 72.643 195.091 72.637C195.091 72.631 195.174 72.574 195.332 72.473C195.498 72.371 195.749 72.218 196.095 72.033C196.788 71.664 197.863 71.139 199.401 70.686L199.351 70.74C199.587 69.569 199.87 68.162 200.215 66.448L200.231 66.37L200.312 66.368C202.358 66.323 204.748 66.271 207.554 66.209L207.659 66.207L207.685 66.31C208.012 67.624 208.357 69.015 208.741 70.559L208.634 70.452C210.09 70.807 211.582 71.36 213.071 72.183L212.906 72.189C214.069 71.422 215.275 70.628 216.56 69.781L216.674 69.706L216.772 69.801C218.423 71.388 220.157 73.055 221.993 74.822L222.1 74.924L222.023 75.051C221.289 76.267 220.536 77.512 219.761 78.797V78.598C220.57 79.933 221.222 81.405 221.67 82.975L221.519 82.834C222.923 83.124 224.352 83.42 225.806 83.721L225.966 83.754L225.969 83.918C226.013 86.273 226.058 88.688 226.104 91.16L226.107 91.329L225.942 91.37C224.544 91.714 223.128 92.062 221.69 92.416L221.848 92.258C221.472 93.791 220.888 95.293 220.101 96.707L220.093 96.481C220.885 97.689 221.685 98.909 222.494 100.14L222.591 100.287L222.469 100.414C220.816 102.127 219.139 103.865 217.439 105.627L217.316 105.755L217.164 105.663C215.927 104.913 214.678 104.156 213.422 103.395H213.652L213.648 103.397C212.244 104.248 210.728 104.887 209.266 105.3L209.423 105.131C209.116 106.602 208.812 108.064 208.53 109.417L208.494 109.59L208.317 109.593C205.825 109.636 203.368 109.678 201.074 109.717L200.9 109.72L200.859 109.55C200.5 108.082 200.145 106.629 199.819 105.297L199.977 105.455C198.367 105.059 196.838 104.434 195.532 103.702L195.751 103.694C194.482 104.524 193.229 105.344 192.088 106.09L191.949 106.181L191.83 106.066C190.023 104.317 188.26 102.611 186.625 101.028L186.511 100.918L186.593 100.782C187.385 99.48 188.162 98.202 188.867 97.044V97.243C188.003 95.812 187.373 94.291 186.972 92.863L187.111 92.993C185.613 92.678 184.153 92.371 182.826 92.092L182.689 92.063L182.687 91.923C182.648 89.382 182.611 86.961 182.577 84.68L182.575 84.553L182.698 84.523C184.191 84.161 185.627 83.814 186.953 83.492L186.846 83.599C187.254 81.965 187.871 80.479 188.602 79.176L188.607 79.311C187.748 77.989 186.945 76.753 186.223 75.641L186.174 75.565L186.237 75.501C188.298 73.391 190.002 71.646 191.298 70.319L191.338 70.278L191.386 70.308C192.582 71.052 193.503 71.625 194.143 72.023C194.445 72.215 194.678 72.363 194.852 72.473C195.01 72.576 195.091 72.631 195.091 72.637Z" fill="#F5F5F5"/>
<path d="M127.928 178.949H46.063V264.286H127.928V178.949Z" fill="#E0E0E0"/>
<path d="M122.384 178.949H40.519V264.286H122.384V178.949Z" fill="#EBEBEB"/>
<path d="M111.379 190.421H51.5239V252.815H111.379V190.421Z" fill="#FAFAFA"/>
<path d="M51.524 253.229C51.564 253.277 50.989 253.921 50.028 254.925C49.067 255.928 47.72 257.29 46.215 258.774C44.709 260.258 43.328 261.583 42.312 262.526C41.296 263.469 40.646 264.031 40.602 263.987C40.558 263.943 41.13 263.301 42.091 262.297C43.052 261.294 44.402 259.929 45.912 258.441C47.422 256.954 48.805 255.627 49.821 254.683C50.836 253.741 51.484 253.182 51.524 253.229Z" fill="#E0E0E0"/>
<path d="M111.379 253.076C111.427 253.036 112.071 253.611 113.075 254.571C114.079 255.532 115.441 256.879 116.924 258.385C118.408 259.891 119.733 261.272 120.676 262.288C121.619 263.304 122.181 263.954 122.137 263.998C122.093 264.042 121.451 263.47 120.447 262.509C119.444 261.548 118.079 260.198 116.591 258.688C115.104 257.178 113.777 255.795 112.833 254.779C111.891 253.764 111.332 253.116 111.379 253.076Z" fill="#E0E0E0"/>
<path d="M111.215 190.587C111.175 190.539 111.75 189.894 112.711 188.891C113.672 187.887 115.018 186.525 116.524 185.042C118.031 183.558 119.411 182.233 120.427 181.29C121.443 180.347 122.093 179.785 122.137 179.829C122.181 179.873 121.609 180.515 120.648 181.519C119.687 182.522 118.337 183.887 116.827 185.374C115.317 186.861 113.934 188.188 112.918 189.132C111.903 190.075 111.255 190.635 111.215 190.587Z" fill="#E0E0E0"/>
<path d="M51.36 190.74C51.312 190.78 50.667 190.205 49.664 189.244C48.661 188.283 47.299 186.936 45.815 185.431C44.331 183.924 43.006 182.544 42.063 181.528C41.12 180.512 40.558 179.862 40.602 179.818C40.646 179.774 41.288 180.346 42.292 181.307C43.295 182.268 44.66 183.618 46.148 185.128C47.635 186.638 48.962 188.021 49.906 189.037C50.848 190.053 51.408 190.7 51.36 190.74Z" fill="#E0E0E0"/>
<path d="M111.215 252.814C111.215 252.814 111.208 252.709 111.204 252.513C111.201 252.305 111.198 252.018 111.193 251.644C111.188 250.868 111.18 249.742 111.17 248.279C111.158 245.329 111.141 241.03 111.119 235.567C111.095 224.642 111.061 209.069 111.02 190.421L111.216 190.617C93.7928 190.625 73.3288 190.635 51.5308 190.646H51.5248L51.7498 190.421C51.7378 213.322 51.7268 234.748 51.7178 252.815L51.5248 252.622C69.4198 252.663 84.3178 252.697 94.7558 252.721C99.9758 252.742 104.078 252.759 106.892 252.771C108.287 252.781 109.36 252.788 110.101 252.793C110.457 252.798 110.73 252.801 110.929 252.804C111.115 252.807 111.215 252.814 111.215 252.814C111.215 252.814 111.129 252.821 110.949 252.825C110.755 252.828 110.489 252.831 110.142 252.836C109.41 252.841 108.35 252.849 106.971 252.858C104.167 252.87 100.079 252.887 94.8778 252.908C84.4098 252.932 69.4688 252.966 51.5238 253.007H51.3308V252.814C51.3218 234.747 51.3108 213.322 51.2988 190.42V190.195H51.5238H51.5298C73.3278 190.205 93.7918 190.215 111.215 190.224H111.411V190.42C111.37 209.12 111.336 224.736 111.312 235.692C111.29 241.137 111.272 245.421 111.261 248.36C111.251 249.807 111.243 250.92 111.238 251.687C111.233 252.052 111.23 252.332 111.227 252.535C111.223 252.724 111.215 252.814 111.215 252.814Z" fill="#E0E0E0"/>
<path d="M67.321 216.487C67.321 216.487 66.039 231.935 82.769 231.935C82.769 223.691 75.968 217.183 67.321 216.487Z" fill="#EBEBEB"/>
<path d="M97.9338 216.498C97.9338 216.498 82.4858 215.216 82.4858 231.946C90.7298 231.946 97.2368 225.145 97.9338 216.498Z" fill="#EBEBEB"/>
<path d="M82.0268 208.043C82.0268 208.043 69.4068 219.372 82.7178 231.935C88.9088 225.376 88.3838 215.09 82.0268 208.043Z" fill="#E0E0E0"/>
<path d="M385.743 458.689C368.701 449.478 349.547 432.713 342.095 413.67C360.518 423.172 376.043 439.185 385.743 458.689Z" fill="#FF725E"/>
<path d="M384.631 430.125C367.589 420.913 348.435 404.149 340.983 385.106C359.406 394.608 374.931 410.62 384.631 430.125Z" fill="#FF725E"/>
<path d="M382.085 402.203C365.043 392.991 345.889 376.227 338.437 357.184C356.861 366.686 372.385 382.699 382.085 402.203Z" fill="#FF725E"/>
<path d="M378.358 372.873C362.548 361.353 345.536 342.048 340.399 322.12C357.545 334.121 371.047 352.173 378.358 372.873Z" fill="#FF725E"/>
<path d="M373.552 350.245C362.854 333.129 353.721 308.303 355.814 287.733C367.585 305.838 373.894 328.073 373.552 350.245Z" fill="#FF725E"/>
<path d="M375.978 361.015C380.481 339.665 391.44 313.318 407.222 298.478C402.773 321.392 391.66 343.636 375.978 361.015Z" fill="#FF725E"/>
<path d="M379.487 385.167C385.933 363.323 399.515 336.837 417.173 322.755C410.656 346.232 397.252 368.431 379.487 385.167Z" fill="#FF725E"/>
<path d="M383.361 414.581C389.807 392.737 403.389 366.251 421.047 352.169C414.53 375.647 401.125 397.846 383.361 414.581Z" fill="#FF725E"/>
<path d="M385.312 450.428C391.758 428.584 405.34 402.098 422.998 388.016C416.481 411.494 403.077 433.693 385.312 450.428Z" fill="#FF725E"/>
<path d="M373.124 345.936C373.136 345.934 373.172 346.051 373.23 346.281C373.294 346.552 373.374 346.89 373.473 347.309C373.683 348.268 373.972 349.594 374.34 351.275C375.091 354.72 376.075 359.727 377.194 365.932C378.325 372.135 379.511 379.55 380.679 387.805C381.81 396.065 382.899 405.168 383.791 414.748C384.66 424.334 385.246 433.485 385.639 441.814C385.998 450.145 386.18 457.652 386.202 463.957C386.234 470.262 386.181 475.364 386.072 478.888C386.018 480.608 385.975 481.964 385.944 482.945C385.923 483.375 385.907 483.722 385.893 484C385.878 484.238 385.864 484.359 385.852 484.359C385.84 484.359 385.83 484.237 385.822 483.999C385.817 483.721 385.811 483.374 385.804 482.943C385.803 481.962 385.802 480.605 385.801 478.885C385.827 475.361 385.804 470.262 385.709 463.963C385.624 457.664 385.392 450.165 384.997 441.845C384.569 433.526 383.964 424.387 383.096 414.812C382.205 405.243 381.137 396.148 380.041 387.892C378.91 379.641 377.775 372.225 376.707 366.017C375.652 359.806 374.742 354.788 374.073 351.328C373.76 349.636 373.513 348.302 373.335 347.337C373.264 346.912 373.206 346.57 373.16 346.295C373.125 346.061 373.113 345.939 373.124 345.936Z" fill="#263238"/>
<g opacity="0.3">
<path d="M385.743 458.689C368.701 449.478 349.547 432.713 342.095 413.67C360.518 423.172 376.043 439.185 385.743 458.689Z" fill="black"/>
</g>
<g opacity="0.3">
<path d="M384.631 430.125C367.589 420.913 348.435 404.149 340.983 385.106C359.406 394.608 374.931 410.62 384.631 430.125Z" fill="black"/>
</g>
<g opacity="0.3">
<path d="M382.085 402.203C365.043 392.991 345.889 376.227 338.437 357.184C356.861 366.686 372.385 382.699 382.085 402.203Z" fill="black"/>
</g>
<g opacity="0.3">
<path d="M378.358 372.873C362.548 361.353 345.536 342.048 340.399 322.12C357.545 334.121 371.047 352.173 378.358 372.873Z" fill="black"/>
</g>
<g opacity="0.3">
<path d="M373.552 350.245C362.854 333.129 353.721 308.303 355.814 287.733C367.585 305.838 373.894 328.073 373.552 350.245Z" fill="black"/>
</g>
<g opacity="0.3">
<path d="M375.978 361.015C380.481 339.665 391.44 313.318 407.222 298.478C402.773 321.392 391.66 343.636 375.978 361.015Z" fill="black"/>
</g>
<g opacity="0.3">
<path d="M379.487 385.167C385.933 363.323 399.515 336.837 417.173 322.755C410.656 346.232 397.252 368.431 379.487 385.167Z" fill="black"/>
</g>
<g opacity="0.3">
<path d="M383.361 414.581C389.807 392.737 403.389 366.251 421.047 352.169C414.53 375.647 401.125 397.846 383.361 414.581Z" fill="black"/>
</g>
<g opacity="0.3">
<path d="M385.312 450.428C391.758 428.584 405.34 402.098 422.998 388.016C416.481 411.494 403.077 433.693 385.312 450.428Z" fill="black"/>
</g>
<path d="M390.051 464.46C379.684 450.768 370.024 430.509 370.16 413.116C381.509 427.571 388.584 445.833 390.051 464.46Z" fill="#FF725E"/>
<path d="M398.069 442.325C387.702 428.633 378.042 408.374 378.178 390.981C389.528 405.436 396.603 423.698 398.069 442.325Z" fill="#FF725E"/>
<path d="M404.775 420.115C394.408 406.423 384.748 386.164 384.884 368.771C396.234 383.226 403.309 401.488 404.775 420.115Z" fill="#FF725E"/>
<path d="M411.002 396.37C402.308 381.409 395.103 360.061 397.311 342.906C406.892 358.758 411.761 377.774 411.002 396.37Z" fill="#FF725E"/>
<path d="M414.306 377.293C411.322 360.089 411.951 337.643 419.972 322.839C423.482 341.217 421.466 360.586 414.306 377.293Z" fill="#FF725E"/>
<path d="M412.841 386.428C422.976 371.979 439.678 356.27 456.546 351.196C445.967 366.855 430.422 379.387 412.841 386.428Z" fill="#FF725E"/>
<path d="M408.055 406.152C419.853 392.091 438.634 377.306 456.724 373.547C444.363 388.821 427.052 400.418 408.055 406.152Z" fill="#FF725E"/>
<path d="M401.917 430.018C413.715 415.957 432.496 401.172 450.586 397.413C438.225 412.687 420.914 424.284 401.917 430.018Z" fill="#FF725E"/>
<path d="M392.285 458.015C404.083 443.954 422.864 429.169 440.954 425.41C428.593 440.684 411.282 452.281 392.285 458.015Z" fill="#FF725E"/>
<path d="M415.314 373.853C415.325 373.855 415.318 373.956 415.293 374.151C415.259 374.384 415.217 374.668 415.167 375.016C415.033 375.828 414.85 376.934 414.619 378.332C414.141 381.211 413.359 385.362 412.311 390.474C410.219 400.698 406.896 414.745 402.316 430.004C400.014 437.631 397.623 444.836 395.331 451.346C393.005 457.844 390.808 463.659 388.843 468.495C386.893 473.336 385.248 477.226 384.053 479.888C383.472 481.179 383.012 482.202 382.674 482.952C382.524 483.27 382.401 483.529 382.3 483.742C382.213 483.919 382.163 484.007 382.152 484.002C382.142 483.998 382.171 483.9 382.239 483.715C382.324 483.495 382.427 483.227 382.553 482.899C382.863 482.137 383.286 481.099 383.82 479.788C384.943 477.097 386.522 473.183 388.416 468.325C390.324 463.473 392.473 457.648 394.766 451.147C397.024 444.634 399.394 437.433 401.693 429.816C406.267 414.579 409.656 400.569 411.861 390.378C412.965 385.282 413.815 381.148 414.37 378.285C414.651 376.897 414.874 375.798 415.038 374.992C415.114 374.649 415.177 374.369 415.228 374.139C415.274 373.948 415.303 373.851 415.314 373.853Z" fill="#263238"/>
<path d="M406.31 520.212H369.865L363.071 469.986H413.297L406.31 520.212Z" fill="#455A64"/>
<path d="M417.811 469.475H358.556V477.282H417.811V469.475Z" fill="#455A64"/>
<path d="M417.812 477.418C417.812 477.562 404.698 477.678 388.525 477.678C372.346 477.678 359.235 477.561 359.235 477.418C359.235 477.274 372.346 477.158 388.525 477.158C404.698 477.158 417.812 477.275 417.812 477.418Z" fill="#263238"/>
<path d="M334.421 519.553H174.473C160.475 519.553 149.128 508.206 149.128 494.208V127.784C149.128 113.786 160.475 102.439 174.473 102.439H334.421C348.419 102.439 359.766 113.786 359.766 127.784V494.208C359.766 508.206 348.418 519.553 334.421 519.553Z" fill="#455A64"/>
<path d="M152.447 494.008V127.984C152.447 115.709 162.398 105.758 174.673 105.758H334.22C346.495 105.758 356.446 115.709 356.446 127.984V494.008C356.446 506.283 346.495 516.234 334.22 516.234H174.673C162.398 516.234 152.447 506.283 152.447 494.008Z" fill="#263238"/>
<path d="M239.319 118.904C238.027 118.904 236.976 117.853 236.976 116.561C236.976 115.269 238.027 114.218 239.319 114.218H269.444C270.736 114.218 271.787 115.269 271.787 116.561C271.787 117.853 270.736 118.904 269.444 118.904H239.319Z" fill="#455A64"/>
<path d="M223.167 118.904C221.875 118.904 220.824 117.853 220.824 116.561C220.824 115.269 221.875 114.218 223.167 114.218C224.458 114.218 225.509 115.269 225.509 116.561C225.509 117.853 224.458 118.904 223.167 118.904Z" fill="#455A64"/>
<path d="M231.788 118.904C230.496 118.904 229.445 117.853 229.445 116.561C229.445 115.269 230.496 114.218 231.788 114.218C233.079 114.218 234.13 115.269 234.13 116.561C234.13 117.853 233.079 118.904 231.788 118.904Z" fill="#455A64"/>
<path d="M285.727 118.904C284.435 118.904 283.384 117.853 283.384 116.561C283.384 115.269 284.435 114.218 285.727 114.218C287.018 114.218 288.069 115.269 288.069 116.561C288.069 117.853 287.018 118.904 285.727 118.904Z" fill="#455A64"/>
<path d="M277.106 118.904C275.814 118.904 274.763 117.853 274.763 116.561C274.763 115.269 275.814 114.218 277.106 114.218C278.397 114.218 279.448 115.269 279.448 116.561C279.448 117.853 278.397 118.904 277.106 118.904Z" fill="#455A64"/>
<path d="M337.229 108.572H300.765C298.014 108.572 295.593 110.39 294.827 113.032L292.508 121.021C291.649 123.979 288.939 126.015 285.859 126.015H223.036C219.955 126.015 217.245 123.98 216.387 121.021L214.068 113.032C213.301 110.39 210.881 108.572 208.13 108.572H179.774C167.303 108.572 157.194 118.681 157.194 131.152V495.442C157.194 503.87 164.026 510.703 172.455 510.703H338.298C345.7 510.703 351.701 504.702 351.701 497.3V123.043C351.7 115.051 345.221 108.572 337.229 108.572Z" fill="#FAFAFA"/>
<path d="M345.188 115.297C341.094 111.148 335.41 108.572 329.121 108.572H296.122L291.059 126.015H217.837L212.774 108.572H171.948C163.8 108.572 157.194 115.177 157.194 123.326V387.093L157.773 387.158C176.731 389.218 195.176 377.3 205.582 361.32C215.988 345.34 219.664 325.939 221.497 306.958C223.329 287.976 223.558 268.726 228.016 250.184C235.501 219.054 255.238 191.045 282.034 173.524C295.262 164.875 310.073 158.711 322.685 149.185C333.78 140.805 343.326 128.817 345.188 115.297Z" fill="#F5F5F5"/>
<path d="M351.7 501.555V384.843C321.754 387.878 293.726 406.009 278.681 432.078C265.111 455.592 262.421 485.019 271.09 510.703H342.552C347.605 510.703 351.7 506.607 351.7 501.555Z" fill="#F5F5F5"/>
<path d="M359.761 193.1H360.075C360.664 193.1 361.141 193.577 361.141 194.166V239.973C361.141 240.562 360.664 241.039 360.075 241.039H359.761V193.1Z" fill="#455A64"/>
<path d="M149.128 222.644H148.762C148.173 222.644 147.696 223.121 147.696 223.71V251.93C147.696 252.519 148.173 252.996 148.762 252.996H149.128V222.644Z" fill="#455A64"/>
<path d="M149.128 182.99H148.762C148.173 182.99 147.696 183.467 147.696 184.056V212.276C147.696 212.865 148.173 213.342 148.762 213.342H149.128V182.99Z" fill="#455A64"/>
<path d="M149.128 153.225H148.841C148.318 153.225 147.893 153.649 147.893 154.173V166.39C147.893 166.913 148.317 167.338 148.841 167.338H149.128V153.225Z" fill="#455A64"/>
<path d="M305.928 122.144H304.482V124.173H305.928V122.144Z" fill="#263238"/>
<path d="M308.282 121.24H306.836V124.172H308.282V121.24Z" fill="#263238"/>
<path d="M310.637 120.562H309.191V124.172H310.637V120.562Z" fill="#263238"/>
<path d="M312.992 119.252H311.546V124.172H312.992V119.252Z" fill="#263238"/>
<path d="M334.352 124.274H327.09C326.803 124.274 326.569 124.041 326.569 123.753V120.143C326.569 119.856 326.801 119.622 327.084 119.622H334.351C334.386 119.622 334.421 119.636 334.446 119.661C334.471 119.686 334.484 119.72 334.484 119.755V120.945H335.261C335.335 120.945 335.394 121.005 335.394 121.078V122.818C335.394 122.891 335.335 122.951 335.261 122.951H334.484V124.141C334.485 124.215 334.426 124.274 334.352 124.274ZM334.219 119.889L327.085 119.89C326.945 119.89 326.836 120.002 326.836 120.145V123.755C326.836 123.895 326.95 124.01 327.091 124.01H334.22V122.82C334.22 122.747 334.279 122.687 334.353 122.687H335.13V121.213H334.353C334.279 121.213 334.22 121.153 334.22 121.08V119.889H334.219Z" fill="#263238"/>
<path d="M327.428 123.415V120.482H333.627V121.805V122.093V123.415H327.428Z" fill="#263238"/>
<path d="M319.916 123.996C319.916 123.703 319.678 123.465 319.385 123.465C319.092 123.465 318.854 123.703 318.854 123.996C318.854 124.289 319.092 124.527 319.385 124.527C319.679 124.527 319.916 124.289 319.916 123.996Z" fill="#263238"/>
<path d="M317.576 122.717L318.253 123.394C318.543 123.104 318.944 122.924 319.386 122.924C319.828 122.924 320.228 123.104 320.519 123.394L321.196 122.717C320.732 122.253 320.092 121.966 319.386 121.966C318.68 121.966 318.04 122.253 317.576 122.717Z" fill="#263238"/>
<path d="M319.387 120.456C318.265 120.456 317.247 120.913 316.51 121.65L317.187 122.327C317.751 121.763 318.529 121.414 319.387 121.414C320.245 121.414 321.023 121.763 321.586 122.327L322.264 121.65C321.526 120.913 320.509 120.456 319.387 120.456Z" fill="#263238"/>
<path d="M315.407 120.548L316.085 121.226C316.931 120.38 318.099 119.856 319.387 119.856C320.675 119.856 321.843 120.38 322.689 121.226L323.367 120.548C322.347 119.529 320.94 118.897 319.388 118.897C317.834 118.897 316.427 119.529 315.407 120.548Z" fill="#263238"/>
<path d="M300.234 275.256C305.581 262.112 299.26 247.122 286.116 241.776C272.972 236.429 257.982 242.75 252.635 255.894C247.288 269.038 253.609 284.028 266.754 289.374C279.898 294.721 294.887 288.4 300.234 275.256Z" fill="#F5F5F5"/>
<path d="M185.706 214.136C185.706 207.606 189.132 203.712 193.876 203.712C198.62 203.712 202.075 207.607 202.075 214.136C202.075 220.666 198.62 224.56 193.876 224.56C189.132 224.56 185.706 220.666 185.706 214.136ZM199.908 214.136C199.908 208.66 197.448 205.644 193.876 205.644C190.303 205.644 187.844 208.66 187.844 214.136C187.844 219.612 190.304 222.628 193.876 222.628C197.448 222.628 199.908 219.612 199.908 214.136Z" fill="#263238"/>
<path d="M219.878 213.96C219.878 220.929 216.071 224.56 210.508 224.56C208.663 224.56 206.935 224.238 205.647 223.447L206.496 221.749C207.55 222.452 208.956 222.715 210.478 222.715C214.899 222.715 217.739 219.875 217.739 214.311C217.739 213.842 217.71 213.257 217.651 212.642C216.627 214.896 214.226 216.156 211.385 216.156C207.315 216.156 204.474 213.755 204.474 210.006C204.474 206.17 207.49 203.711 211.473 203.711C216.921 203.712 219.878 207.489 219.878 213.96ZM216.98 209.89C216.98 207.636 215.106 205.498 211.562 205.498C208.605 205.498 206.555 207.226 206.555 209.949C206.555 212.643 208.546 214.371 211.708 214.371C214.842 214.37 216.98 212.438 216.98 209.89Z" fill="#263238"/>
<path d="M222.953 210.447C222.953 209.539 223.656 208.866 224.505 208.866C225.355 208.866 226.087 209.539 226.087 210.447C226.087 211.355 225.355 212.057 224.505 212.057C223.656 212.057 222.953 211.354 222.953 210.447ZM222.953 222.921C222.953 222.013 223.656 221.34 224.505 221.34C225.355 221.34 226.087 222.014 226.087 222.921C226.087 223.828 225.355 224.531 224.505 224.531C223.656 224.531 222.953 223.828 222.953 222.921Z" fill="#263238"/>
<path d="M229.131 214.136C229.131 207.606 232.557 203.712 237.301 203.712C242.044 203.712 245.499 207.607 245.499 214.136C245.499 220.666 242.044 224.56 237.301 224.56C232.557 224.56 229.131 220.666 229.131 214.136ZM243.333 214.136C243.333 208.66 240.873 205.644 237.301 205.644C233.729 205.644 231.269 208.66 231.269 214.136C231.269 219.612 233.729 222.628 237.301 222.628C240.873 222.628 243.333 219.612 243.333 214.136Z" fill="#263238"/>
<path d="M248.517 214.136C248.517 207.606 251.943 203.712 256.687 203.712C261.43 203.712 264.885 207.607 264.885 214.136C264.885 220.666 261.43 224.56 256.687 224.56C251.943 224.56 248.517 220.666 248.517 214.136ZM262.719 214.136C262.719 208.66 260.259 205.644 256.687 205.644C253.115 205.644 250.654 208.66 250.654 214.136C250.654 219.612 253.115 222.628 256.687 222.628C260.259 222.628 262.719 219.612 262.719 214.136Z" fill="#263238"/>
<path d="M322.537 180.168H190.542C183.292 180.168 177.414 174.29 177.414 167.04C177.414 159.79 183.292 153.912 190.542 153.912H322.537C329.788 153.912 335.665 159.79 335.665 167.04C335.666 174.29 329.788 180.168 322.537 180.168Z" fill="#E0E0E0"/>
<path d="M319.114 172.049C316.351 172.049 314.104 169.802 314.104 167.04C314.104 164.278 316.351 162.031 319.114 162.031C321.876 162.031 324.123 164.278 324.123 167.04C324.123 169.802 321.876 172.049 319.114 172.049ZM319.114 163.031C316.903 163.031 315.104 164.829 315.104 167.04C315.104 169.251 316.903 171.049 319.114 171.049C321.325 171.049 323.123 169.251 323.123 167.04C323.123 164.829 321.325 163.031 319.114 163.031Z" fill="#263238"/>
<path d="M325.836 173.346C325.719 173.346 325.602 173.306 325.507 173.223L322.213 170.342C322.005 170.16 321.984 169.844 322.166 169.636C322.348 169.427 322.664 169.407 322.871 169.589L326.165 172.47C326.373 172.652 326.394 172.968 326.212 173.176C326.114 173.289 325.975 173.346 325.836 173.346Z" fill="#263238"/>
<path d="M318.351 222.32C318.351 222.298 318.723 222.359 319.41 222.272C320.086 222.179 321.106 221.902 322.116 221.09C322.618 220.69 323.11 220.156 323.478 219.474C323.674 219.139 323.809 218.758 323.925 218.358C324.021 217.952 324.079 217.522 324.072 217.075C324.057 216.629 323.998 216.169 323.869 215.712C323.735 215.257 323.545 214.804 323.293 214.371C322.782 213.513 322.005 212.736 321.006 212.278L320.954 212.254L320.957 212.197C321.017 210.83 320.224 209.345 318.866 208.658C317.521 207.972 315.66 208.227 314.508 209.387L314.382 209.514L314.345 209.339C313.883 207.135 312.157 205.111 309.871 204.222C309.284 204.001 308.679 203.823 308.062 203.769C307.909 203.744 307.755 203.733 307.601 203.734C307.447 203.732 307.294 203.722 307.141 203.726C306.836 203.754 306.53 203.759 306.233 203.829C305.032 204.034 303.945 204.619 303.05 205.36C302.165 206.119 301.468 207.055 301.015 208.062C300.571 209.073 300.364 210.151 300.419 211.181L300.425 211.3L300.309 211.271C299.084 210.969 297.823 211.185 296.791 211.688C296.274 211.944 295.808 212.265 295.399 212.629C294.999 213.003 294.664 213.421 294.393 213.859C294.139 214.307 293.947 214.772 293.84 215.243C293.744 215.714 293.698 216.182 293.742 216.629C293.806 217.524 294.094 218.322 294.471 218.966C295.225 220.274 296.264 220.965 296.988 221.295C297.728 221.623 298.173 221.655 298.166 221.682C298.166 221.684 298.139 221.681 298.086 221.672C298.025 221.661 297.949 221.646 297.851 221.628C297.747 221.608 297.618 221.586 297.471 221.532C297.325 221.479 297.147 221.439 296.964 221.346C296.225 221.029 295.16 220.343 294.379 219.019C293.989 218.367 293.687 217.556 293.615 216.639C293.567 216.182 293.61 215.7 293.706 215.214C293.813 214.729 294.008 214.249 294.267 213.786C294.543 213.333 294.885 212.903 295.294 212.516C295.712 212.14 296.189 211.808 296.72 211.543C297.779 211.022 299.079 210.791 300.353 211.101L300.244 211.192C300.184 210.133 300.393 209.025 300.847 207.987C301.309 206.953 302.021 205.994 302.927 205.214C303.844 204.452 304.96 203.85 306.199 203.637C306.505 203.565 306.821 203.559 307.135 203.53C307.293 203.525 307.451 203.535 307.61 203.537C307.769 203.536 307.927 203.547 308.085 203.573C308.721 203.629 309.343 203.811 309.945 204.038C312.29 204.951 314.06 207.025 314.535 209.3L314.373 209.252C315.593 208.031 317.532 207.771 318.95 208.495C320.376 209.224 321.194 210.77 321.127 212.205L321.078 212.125C322.112 212.604 322.908 213.41 323.428 214.293C323.685 214.739 323.877 215.205 324.012 215.673C324.142 216.143 324.2 216.615 324.212 217.073C324.216 217.532 324.154 217.974 324.052 218.39C323.931 218.8 323.788 219.19 323.585 219.531C323.202 220.226 322.695 220.765 322.18 221.166C321.144 221.981 320.105 222.245 319.42 222.323C319.074 222.359 318.805 222.363 318.626 222.345C318.443 222.333 318.351 222.32 318.351 222.32Z" fill="#263238"/>
<path d="M318.862 222.856C318.755 222.856 318.659 222.852 318.573 222.843C318.385 222.83 318.283 222.815 318.283 222.815C318.093 222.788 317.936 222.655 317.877 222.474C317.818 222.292 317.867 222.092 318.005 221.959C318.162 221.807 318.339 221.814 318.474 221.817C318.615 221.822 318.913 221.832 319.348 221.777C319.96 221.692 320.889 221.436 321.803 220.701C322.321 220.286 322.737 219.794 323.038 219.237C323.234 218.902 323.357 218.518 323.444 218.219C323.532 217.845 323.577 217.455 323.571 217.084C323.556 216.65 323.495 216.232 323.386 215.849C323.261 215.423 323.083 215.009 322.859 214.624C322.362 213.788 321.629 213.115 320.796 212.734C320.61 212.649 320.443 212.434 320.453 212.23C320.51 210.938 319.762 209.675 318.638 209.106C317.445 208.497 315.822 208.772 314.86 209.741L314.736 209.867C314.607 209.997 314.415 210.045 314.24 209.996C314.063 209.944 313.929 209.8 313.891 209.62L313.854 209.445C313.419 207.371 311.784 205.505 309.687 204.69C309.041 204.447 308.508 204.313 308.016 204.269C307.856 204.245 307.724 204.241 307.602 204.236L307.416 204.232C307.327 204.229 307.239 204.224 307.153 204.229L306.932 204.247C306.735 204.261 306.537 204.273 306.344 204.319C305.299 204.499 304.279 204.991 303.366 205.748C302.553 206.445 301.894 207.319 301.468 208.269C301.057 209.205 300.865 210.205 300.914 211.157L300.921 211.273C300.93 211.432 300.863 211.585 300.741 211.687C300.619 211.789 300.458 211.827 300.302 211.788L300.186 211.759C299.16 211.508 298.031 211.641 297.007 212.14C296.55 212.366 296.118 212.658 295.728 213.005C295.385 213.326 295.075 213.705 294.815 214.125C294.585 214.533 294.417 214.953 294.324 215.357C294.23 215.817 294.201 216.222 294.237 216.582C294.29 217.331 294.519 218.064 294.9 218.715C295.635 219.992 296.652 220.595 297.192 220.841C297.666 221.051 298.003 221.127 298.167 221.163C298.305 221.194 298.476 221.232 298.59 221.42C298.661 221.536 298.682 221.677 298.649 221.808C298.584 222.061 298.259 222.211 297.998 222.165L297.759 222.12C297.605 222.091 297.459 222.061 297.296 222.001L297.184 221.964C297.044 221.92 296.893 221.871 296.737 221.792C296.105 221.522 294.858 220.815 293.949 219.273C293.477 218.484 293.189 217.587 293.117 216.679C293.068 216.218 293.1 215.703 293.216 215.118C293.332 214.59 293.539 214.063 293.832 213.542C294.149 213.02 294.522 212.557 294.951 212.153C295.425 211.726 295.942 211.373 296.496 211.096C297.529 210.587 298.656 210.376 299.741 210.491C299.786 209.585 300.005 208.663 300.387 207.787C300.885 206.672 301.65 205.652 302.599 204.836C303.679 203.938 304.892 203.354 306.112 203.145C306.337 203.091 306.595 203.07 306.856 203.051L307.087 203.032C307.233 203.027 307.348 203.03 307.461 203.034L307.615 203.038C307.801 203.036 307.977 203.051 308.162 203.08C308.728 203.128 309.361 203.286 310.119 203.571C312.281 204.413 314.025 206.213 314.768 208.3C316.078 207.476 317.803 207.351 319.173 208.051C320.601 208.781 321.549 210.272 321.621 211.843C322.522 212.342 323.307 213.11 323.853 214.04C324.124 214.509 324.335 215.01 324.487 215.535C324.619 216.01 324.693 216.521 324.707 217.06C324.711 217.534 324.652 218.018 324.532 218.508C324.369 219.063 324.21 219.45 324.009 219.786C323.638 220.46 323.121 221.061 322.483 221.559C321.357 222.445 320.224 222.733 319.472 222.819C319.248 222.844 319.042 222.856 318.862 222.856Z" fill="#263238"/>
<path d="M306.489 218.74C306.536 218.768 305.915 219.887 305.102 221.239C304.289 222.591 303.592 223.664 303.546 223.636C303.499 223.608 304.12 222.489 304.933 221.137C305.746 219.785 306.442 218.712 306.489 218.74Z" fill="#263238"/>
<path d="M303.582 224.18C303.489 224.18 303.401 224.132 303.291 224.066C302.812 223.776 302.815 223.688 304.505 220.879C306.033 218.337 306.152 218.307 306.365 218.254C306.493 218.221 306.632 218.244 306.744 218.31C306.745 218.31 306.745 218.311 306.746 218.311C306.746 218.311 306.746 218.311 306.747 218.311C306.747 218.311 306.748 218.312 306.748 218.313C306.86 218.381 306.944 218.494 306.977 218.622C307.031 218.836 307.06 218.954 305.532 221.498C304.234 223.653 303.888 224.179 303.582 224.18Z" fill="#263238"/>
<path d="M311.1 218.74C311.147 218.768 310.526 219.887 309.713 221.239C308.9 222.591 308.203 223.664 308.157 223.636C308.11 223.608 308.731 222.489 309.544 221.137C310.356 219.785 311.053 218.712 311.1 218.74Z" fill="#263238"/>
<path d="M308.161 224.136C308.068 224.136 307.976 224.112 307.898 224.064C307.423 223.777 307.427 223.688 309.115 220.88C310.643 218.338 310.761 218.308 310.976 218.254C311.105 218.223 311.246 218.244 311.359 218.312C311.834 218.6 311.829 218.688 310.141 221.496C308.613 224.039 308.494 224.068 308.281 224.122C308.241 224.132 308.201 224.136 308.161 224.136Z" fill="#263238"/>
<path d="M315.711 218.74C315.758 218.768 315.137 219.887 314.324 221.239C313.511 222.591 312.815 223.664 312.768 223.636C312.721 223.608 313.342 222.489 314.155 221.137C314.967 219.785 315.664 218.712 315.711 218.74Z" fill="#263238"/>
<path d="M312.803 224.18C312.71 224.18 312.622 224.132 312.512 224.066C312.033 223.776 312.037 223.688 313.726 220.879C315.254 218.337 315.372 218.307 315.586 218.254C315.714 218.221 315.853 218.244 315.965 218.31C315.966 218.31 315.966 218.311 315.967 218.311L315.968 218.312C315.968 218.312 315.969 218.312 315.969 218.313C316.081 218.381 316.165 218.494 316.197 218.622C316.251 218.836 316.28 218.954 314.752 221.498C313.456 223.653 313.11 224.179 312.803 224.18Z" fill="#263238"/>
<path d="M301.151 225.608C301.198 225.636 300.577 226.755 299.764 228.107C298.951 229.459 298.254 230.532 298.208 230.504C298.161 230.476 298.782 229.357 299.595 228.005C300.408 226.653 301.104 225.58 301.151 225.608Z" fill="#263238"/>
<path d="M298.212 231.004C298.12 231.004 298.028 230.979 297.949 230.931C297.837 230.863 297.753 230.75 297.721 230.622C297.667 230.408 297.638 230.29 299.167 227.747C300.851 224.945 300.928 224.893 301.406 225.178C301.408 225.179 301.41 225.18 301.41 225.18C301.885 225.467 301.881 225.556 300.193 228.364C298.663 230.907 298.546 230.936 298.332 230.989C298.293 230.999 298.252 231.004 298.212 231.004Z" fill="#263238"/>
<path d="M305.762 225.608C305.809 225.636 305.188 226.755 304.375 228.107C303.562 229.459 302.866 230.532 302.819 230.504C302.772 230.476 303.393 229.357 304.206 228.005C305.019 226.653 305.715 225.58 305.762 225.608Z" fill="#263238"/>
<path d="M302.823 231.004C302.731 231.004 302.639 230.98 302.56 230.932C302.448 230.864 302.364 230.751 302.332 230.623C302.278 230.409 302.249 230.291 303.777 227.748C305.464 224.938 305.541 224.894 306.017 225.178C306.02 225.179 306.022 225.181 306.025 225.182C306.493 225.471 306.489 225.56 304.803 228.364C303.275 230.907 303.156 230.936 302.943 230.989C302.904 230.999 302.863 231.004 302.823 231.004Z" fill="#263238"/>
<path d="M310.373 225.608C310.42 225.636 309.799 226.755 308.986 228.107C308.173 229.459 307.476 230.532 307.43 230.504C307.383 230.476 308.004 229.357 308.817 228.005C309.629 226.653 310.326 225.58 310.373 225.608Z" fill="#263238"/>
<path d="M307.433 231.004C307.341 231.004 307.249 230.979 307.17 230.931C307.058 230.863 306.974 230.75 306.941 230.622C306.887 230.408 306.858 230.29 308.387 227.747C310.072 224.945 310.148 224.893 310.626 225.178C310.628 225.179 310.63 225.18 310.63 225.18C311.105 225.467 311.101 225.556 309.413 228.364C307.883 230.907 307.765 230.936 307.552 230.989C307.514 230.999 307.473 231.004 307.433 231.004Z" fill="#263238"/>
<path d="M315.188 225.713C315.235 225.741 314.614 226.86 313.801 228.212C312.988 229.564 312.291 230.637 312.245 230.609C312.198 230.581 312.819 229.462 313.632 228.11C314.445 226.758 315.142 225.685 315.188 225.713Z" fill="#263238"/>
<path d="M312.281 231.152C312.188 231.152 312.1 231.104 311.99 231.038C311.51 230.749 311.514 230.661 313.204 227.851C314.733 225.309 314.85 225.279 315.064 225.226C315.192 225.195 315.331 225.215 315.443 225.282C315.444 225.282 315.444 225.282 315.445 225.282C315.445 225.282 315.445 225.283 315.446 225.283C315.446 225.283 315.447 225.284 315.447 225.285C315.559 225.353 315.643 225.466 315.675 225.594C315.729 225.808 315.758 225.926 314.23 228.47C312.933 230.625 312.587 231.152 312.281 231.152Z" fill="#263238"/>
<path d="M236.014 434.636C238.354 434.636 240.251 432.739 240.251 430.399C240.251 428.059 238.354 426.162 236.014 426.162C233.674 426.162 231.777 428.059 231.777 430.399C231.777 432.739 233.674 434.636 236.014 434.636Z" fill="#EBEBEB"/>
<path d="M250.182 434.636C252.522 434.636 254.419 432.739 254.419 430.399C254.419 428.059 252.522 426.162 250.182 426.162C247.842 426.162 245.945 428.059 245.945 430.399C245.945 432.739 247.842 434.636 250.182 434.636Z" fill="#E0E0E0"/>
<path d="M264.35 434.636C266.69 434.636 268.587 432.739 268.587 430.399C268.587 428.059 266.69 426.162 264.35 426.162C262.01 426.162 260.113 428.059 260.113 430.399C260.113 432.739 262.01 434.636 264.35 434.636Z" fill="#E0E0E0"/>
<path d="M278.518 434.636C280.858 434.636 282.755 432.739 282.755 430.399C282.755 428.059 280.858 426.162 278.518 426.162C276.178 426.162 274.281 428.059 274.281 430.399C274.281 432.739 276.178 434.636 278.518 434.636Z" fill="#E0E0E0"/>
<path d="M200.688 485.632H184.681C179.671 485.632 175.609 481.57 175.609 476.56V460.553C175.609 455.543 179.671 451.481 184.681 451.481H200.688C205.698 451.481 209.76 455.543 209.76 460.553V476.56C209.76 481.57 205.699 485.632 200.688 485.632Z" fill="#FF725E"/>
<path d="M242.716 485.314H227.794C222.484 485.314 218.179 481.009 218.179 475.699V460.777C218.179 455.467 222.484 451.162 227.794 451.162H242.716C248.026 451.162 252.331 455.467 252.331 460.777V475.7C252.33 481.01 248.026 485.314 242.716 485.314Z" fill="#E0E0E0"/>
<path d="M284.743 484.997H270.906C265.297 484.997 260.749 480.449 260.749 474.84V461.003C260.749 455.393 265.297 450.846 270.906 450.846H284.743C290.353 450.846 294.9 455.393 294.9 461.003V474.84C294.9 480.449 290.353 484.997 284.743 484.997Z" fill="#455A64"/>
<path d="M327.195 485.632H313.595C307.92 485.632 303.319 481.031 303.319 475.356V461.756C303.319 456.081 307.92 451.48 313.595 451.48H327.195C332.87 451.48 337.471 456.081 337.471 461.756V475.356C337.47 481.031 332.87 485.632 327.195 485.632Z" fill="#263238"/>
<path d="M200.771 411.7H184.599C179.634 411.7 175.609 407.675 175.609 402.71V386.538C175.609 381.573 179.634 377.548 184.599 377.548H200.771C205.736 377.548 209.761 381.573 209.761 386.538V402.71C209.761 407.675 205.736 411.7 200.771 411.7Z" fill="#455A64"/>
<path d="M241.79 411.382H228.72C222.899 411.382 218.179 406.663 218.179 400.841V387.771C218.179 381.95 222.898 377.23 228.72 377.23H241.79C247.611 377.23 252.331 381.949 252.331 387.771V400.841C252.331 406.663 247.611 411.382 241.79 411.382Z" fill="#263238"/>
<path d="M285.574 411.065H270.077C264.926 411.065 260.75 406.889 260.75 401.738V386.24C260.75 381.089 264.926 376.913 270.077 376.913H285.574C290.725 376.913 294.901 381.089 294.901 386.24V401.737C294.901 406.889 290.725 411.065 285.574 411.065Z" fill="#E0E0E0"/>
<path d="M327.272 410.747H313.518C307.885 410.747 303.319 406.181 303.319 400.548V386.794C303.319 381.161 307.885 376.595 313.518 376.595H327.272C332.905 376.595 337.471 381.161 337.471 386.794V400.548C337.471 406.181 332.904 410.747 327.272 410.747Z" fill="#FF725E"/>
<path d="M189.015 388.542C189.56 388.213 190.14 387.963 190.739 387.793L191.094 386.087L193.976 386.036L194.391 387.728C194.995 387.877 195.584 388.106 196.14 388.416L197.597 387.461L199.671 389.464L198.768 390.953C199.097 391.498 199.347 392.079 199.517 392.677L201.223 393.032L201.274 395.914L199.582 396.329C199.433 396.933 199.204 397.522 198.894 398.078L199.849 399.535L197.847 401.609L196.358 400.706C195.813 401.035 195.233 401.285 194.634 401.455L194.279 403.161L191.397 403.212L190.982 401.519C190.378 401.37 189.789 401.141 189.233 400.831L187.776 401.786L185.702 399.783L186.605 398.294C186.276 397.749 186.026 397.169 185.856 396.57L184.15 396.215L184.099 393.333L185.792 392.918C185.941 392.314 186.17 391.725 186.48 391.169L185.525 389.712L187.527 387.638L189.015 388.542ZM189.982 392.015C188.541 393.508 188.583 395.886 190.076 397.327C191.568 398.768 193.947 398.726 195.388 397.234C196.829 395.741 196.787 393.363 195.295 391.922C193.802 390.481 191.424 390.523 189.982 392.015Z" fill="white"/>
<path d="M269.862 476.207L271.106 471.565C270.402 470.294 270.031 468.87 270.031 467.424C270.031 462.698 273.876 458.853 278.602 458.853C283.328 458.853 287.173 462.698 287.173 467.424C287.173 472.15 283.328 475.996 278.602 475.996C277.183 475.996 275.782 475.638 274.528 474.957L269.862 476.207ZM274.76 473.218L275.054 473.393C276.133 474.036 277.36 474.376 278.603 474.376C282.436 474.376 285.554 471.258 285.554 467.425C285.554 463.592 282.436 460.474 278.603 460.474C274.77 460.474 271.652 463.592 271.652 467.425C271.652 468.691 272.004 469.937 272.669 471.029L272.849 471.325L272.154 473.917L274.76 473.218Z" fill="white"/>
<path fill-rule="evenodd" clip-rule="evenodd" d="M281.693 468.667C281.34 468.456 280.881 468.22 280.465 468.391C280.146 468.521 279.943 469.02 279.736 469.275C279.63 469.406 279.503 469.426 279.341 469.361C278.144 468.884 277.227 468.085 276.566 466.984C276.454 466.813 276.474 466.678 276.609 466.519C276.809 466.284 277.059 466.017 277.113 465.701C277.167 465.385 277.018 465.014 276.888 464.732C276.721 464.372 276.534 463.858 276.173 463.654C275.841 463.467 275.405 463.572 275.109 463.812C274.599 464.227 274.353 464.878 274.36 465.523C274.362 465.706 274.384 465.889 274.427 466.066C274.53 466.492 274.727 466.889 274.948 467.267C275.115 467.552 275.296 467.828 275.492 468.094C276.132 468.964 276.929 469.719 277.851 470.284C278.312 470.566 278.808 470.814 279.322 470.984C279.898 471.174 280.412 471.372 281.034 471.255C281.686 471.131 282.328 470.728 282.587 470.1C282.663 469.914 282.702 469.707 282.659 469.511C282.571 469.105 282.021 468.863 281.693 468.667Z" fill="white"/>
<path fill-rule="evenodd" clip-rule="evenodd" d="M198.715 470.609C198.045 470.208 197.173 469.761 196.383 470.084C195.777 470.332 195.391 471.28 194.998 471.764C194.797 472.013 194.556 472.051 194.247 471.927C191.973 471.021 190.231 469.503 188.976 467.412C188.764 467.087 188.802 466.831 189.058 466.529C189.437 466.083 189.913 465.576 190.015 464.974C190.118 464.373 189.836 463.67 189.587 463.134C189.269 462.45 188.914 461.474 188.228 461.087C187.598 460.731 186.768 460.93 186.207 461.388C185.238 462.177 184.77 463.414 184.785 464.639C184.789 464.987 184.831 465.335 184.913 465.671C185.109 466.48 185.482 467.234 185.903 467.952C186.22 468.493 186.565 469.018 186.936 469.523C188.152 471.175 189.665 472.611 191.417 473.684C192.292 474.22 193.235 474.69 194.212 475.013C195.307 475.375 196.282 475.751 197.465 475.527C198.703 475.292 199.923 474.526 200.415 473.333C200.56 472.98 200.633 472.586 200.552 472.213C200.383 471.441 199.339 470.983 198.715 470.609Z" fill="white"/>
<path d="M325.738 463.086C325.187 463.086 324.74 463.533 324.74 464.084C324.74 464.635 325.187 465.082 325.738 465.082C326.289 465.082 326.736 464.635 326.736 464.084C326.736 463.532 326.289 463.086 325.738 463.086Z" fill="white"/>
<path d="M321.302 464.078C318.991 464.078 317.111 465.958 317.111 468.269C317.111 470.58 318.991 472.46 321.302 472.46C323.613 472.46 325.493 470.58 325.493 468.269C325.493 465.958 323.613 464.078 321.302 464.078ZM321.302 470.954C319.822 470.954 318.617 469.75 318.617 468.269C318.617 466.789 319.821 465.584 321.302 465.584C322.782 465.584 323.987 466.788 323.987 468.269C323.987 469.75 322.783 470.954 321.302 470.954Z" fill="white"/>
<path d="M324.63 477.065H317.836C315.017 477.065 312.724 474.772 312.724 471.953V465.158C312.724 462.339 315.017 460.046 317.836 460.046H324.63C327.449 460.046 329.742 462.339 329.742 465.158V471.953C329.742 474.772 327.448 477.065 324.63 477.065ZM317.835 461.648C315.899 461.648 314.324 463.223 314.324 465.159V471.954C314.324 473.89 315.899 475.465 317.835 475.465H324.629C326.565 475.465 328.14 473.89 328.14 471.954V465.159C328.14 463.223 326.565 461.648 324.629 461.648H317.835Z" fill="white"/>
<path d="M227.698 476.555C227.495 476.555 227.304 476.476 227.161 476.333C226.866 476.037 226.866 475.556 227.161 475.26L231.219 471.202C229.031 468.475 229.244 464.436 231.724 461.955C233.035 460.644 234.778 459.922 236.632 459.922C238.486 459.922 240.228 460.644 241.54 461.955C244.245 464.661 244.245 469.064 241.54 471.77C240.229 473.081 238.486 473.803 236.632 473.803C235.03 473.803 233.531 473.275 232.291 472.276L228.234 476.333C228.091 476.476 227.901 476.555 227.698 476.555ZM236.632 461.439C235.183 461.439 233.821 462.003 232.797 463.028C231.774 464.05 231.211 465.412 231.211 466.863C231.211 468.314 231.774 469.675 232.797 470.698C233.821 471.723 235.184 472.287 236.632 472.287C238.081 472.287 239.443 471.723 240.467 470.698C241.49 469.676 242.053 468.313 242.053 466.863C242.053 465.413 241.49 464.051 240.467 463.028C239.444 462.003 238.082 461.439 236.632 461.439Z" fill="white"/>
<path d="M258.838 234.275C258.838 234.419 242.817 234.536 223.058 234.536C203.292 234.536 187.274 234.419 187.274 234.275C187.274 234.131 203.292 234.015 223.058 234.015C242.817 234.015 258.838 234.131 258.838 234.275Z" fill="#263238"/>
<path d="M236.737 394.13C238.192 393.519 239.228 392.018 239.236 390.25C239.245 387.933 237.492 386.047 235.319 386.037C233.147 386.027 231.378 387.897 231.368 390.214C231.361 391.999 232.403 393.518 233.875 394.131C227.822 395.043 228.096 401.622 228.096 401.622L242.411 401.688C242.411 401.688 242.738 395.037 236.737 394.13Z" fill="white"/>
<path d="M289.026 399.473C289.785 397.698 289.324 395.847 288.076 394.375C286.827 392.903 284.719 392.219 282.845 392.679C282.512 390.812 281.211 389.145 279.48 388.369C277.75 387.593 275.639 387.73 274.024 388.724C272.409 389.717 271.334 391.539 271.246 393.433C269.962 393.648 268.793 394.469 268.154 395.603C267.515 396.738 267.42 398.163 267.903 399.372L289.026 399.473Z" fill="white"/>
<path d="M323.337 399.582C323.333 400.351 322.707 400.971 321.938 400.968C321.169 400.964 320.549 400.338 320.552 399.569C320.556 398.8 321.182 398.18 321.951 398.183C322.72 398.187 323.341 398.813 323.337 399.582Z" fill="white"/>
<path d="M319.162 397.792C320.691 396.187 323.176 396.138 324.744 397.718C325.455 398.434 326.568 397.333 325.856 396.616C323.705 394.448 320.173 394.46 318.059 396.679C317.365 397.409 318.465 398.524 319.162 397.792Z" fill="white"/>
<path d="M314.433 391.312C316.55 389.482 319.077 388.33 321.908 388.323C324.713 388.316 327.479 389.312 329.533 391.241C330.267 391.93 331.382 390.831 330.646 390.139C328.293 387.929 325.136 386.749 321.915 386.757C318.658 386.765 315.764 388.096 313.331 390.2C312.567 390.859 313.674 391.969 314.433 391.312Z" fill="white"/>
<path d="M316.299 394.903C317.718 393.369 319.707 392.408 321.81 392.36C323.969 392.311 326.054 393.2 327.556 394.743C328.26 395.466 329.372 394.364 328.668 393.641C326.891 391.816 324.374 390.736 321.817 390.795C319.317 390.852 316.893 391.958 315.197 393.792C314.514 394.529 315.613 395.645 316.299 394.903Z" fill="white"/>
<path d="M118.019 487.112L117.651 507.951C117.651 507.951 138.71 515.324 139.016 519.182L98.5842 519.919L97.8252 487.425L118.019 487.112Z" fill="#FF725E"/>
<path d="M105.117 506.428C104.338 506.656 103.814 507.546 104.009 508.333C104.205 509.12 105.105 509.662 105.888 509.447C106.67 509.233 107.333 508.184 107.05 507.423C106.767 506.663 105.675 506.085 104.967 506.481" fill="#E0E0E0"/>
<path d="M98.584 519.92L98.636 516.642L137.382 517.161C137.382 517.161 139.196 517.911 139.016 519.183L98.584 519.92Z" fill="#263238"/>
<path d="M118.302 507.734C118.299 507.932 117.313 508.039 116.354 508.691C115.377 509.319 114.892 510.183 114.709 510.108C114.526 510.073 114.799 508.887 115.975 508.118C117.144 507.338 118.342 507.552 118.302 507.734Z" fill="#263238"/>
<path d="M122.575 509.411C122.624 509.601 121.775 509.953 121.119 510.8C120.439 511.628 120.286 512.534 120.089 512.529C119.904 512.564 119.747 511.41 120.581 510.372C121.407 509.326 122.567 509.222 122.575 509.411Z" fill="#263238"/>
<path d="M125.076 514.442C124.897 514.487 124.605 513.506 125.092 512.415C125.572 511.321 126.495 510.877 126.581 511.04C126.696 511.2 126.107 511.791 125.721 512.693C125.313 513.586 125.272 514.419 125.076 514.442Z" fill="#263238"/>
<path d="M117.859 502.975C117.78 503.156 116.869 502.901 115.754 502.997C114.637 503.071 113.776 503.461 113.67 503.293C113.553 503.152 114.388 502.406 115.702 502.311C117.016 502.207 117.953 502.818 117.859 502.975Z" fill="#263238"/>
<path d="M94.513 475.996L80.049 491.003C80.049 491.003 90.445 510.745 88.042 513.779L57.938 486.778L79.516 462.471L94.513 475.996Z" fill="#FF725E"/>
<path d="M71.9101 481.349C71.1841 480.986 70.1951 481.28 69.8021 481.989C69.4091 482.699 69.6991 483.709 70.4191 484.084C71.1381 484.46 72.3371 484.144 72.6481 483.394C72.9591 482.645 72.5531 481.478 71.7651 481.286" fill="#E0E0E0"/>
<path d="M57.937 486.778L60.208 484.413L88.222 511.185C88.222 511.185 89.039 512.97 88.041 513.778L57.937 486.778Z" fill="#263238"/>
<path d="M80.6742 491.287C80.5372 491.43 79.7422 490.837 78.5952 490.661C77.4522 490.455 76.5082 490.757 76.4252 490.578C76.3152 490.428 77.3232 489.746 78.7082 489.983C80.0952 490.208 80.8272 491.181 80.6742 491.287Z" fill="#263238"/>
<path d="M82.6599 495.425C82.5659 495.597 81.7049 495.276 80.6479 495.45C79.5859 495.593 78.8569 496.152 78.7169 496.014C78.5579 495.913 79.2288 494.961 80.5468 494.77C81.8628 494.568 82.7829 495.282 82.6599 495.425Z" fill="#263238"/>
<path d="M81.0641 500.813C80.9021 500.724 81.3561 499.807 82.4561 499.34C83.5521 498.866 84.5301 499.17 84.4831 499.348C84.4581 499.543 83.6241 499.575 82.7271 499.972C81.8211 500.347 81.2231 500.929 81.0641 500.813Z" fill="#263238"/>
<path d="M83.5912 487.501C83.4092 487.58 82.9172 486.772 82.0352 486.083C81.1672 485.376 80.2712 485.075 80.3072 484.88C80.3172 484.697 81.4372 484.72 82.4642 485.545C83.4972 486.364 83.7672 487.451 83.5912 487.501Z" fill="#263238"/>
<path d="M174.24 261.245L156.463 272.985L156.726 277.639L161.363 287.424C161.363 287.424 163.507 289.458 169.803 283.081C176.099 276.705 184.065 264.032 184.065 264.032L174.24 261.245Z" fill="#FFBE9D"/>
<path d="M204.168 236.783C203.964 236.318 203.525 235.991 203.012 235.923L194.302 234.756C193.535 234.666 192.764 234.899 192.183 235.398L167.242 256.816L168.371 257.915L177.726 260.168L204.34 237.176L204.168 236.783Z" fill="#263238"/>
<path d="M197.255 238.559C197.39 238.761 197.723 238.783 197.999 238.607C198.275 238.431 198.39 238.124 198.255 237.922C198.12 237.72 197.787 237.699 197.511 237.874C197.234 238.05 197.12 238.357 197.255 238.559Z" fill="white"/>
<path d="M204.34 237.175C204.335 237.21 203.726 237.162 202.629 237.045C201.446 236.906 199.882 236.723 197.991 236.501C197.004 236.378 195.935 236.244 194.792 236.101C194.25 236.004 193.705 236.142 193.281 236.493C192.818 236.894 192.343 237.305 191.857 237.727C189.89 239.42 187.74 241.272 185.482 243.216C180.949 247.1 176.826 250.595 173.824 253.105C172.367 254.309 171.163 255.305 170.252 256.058C169.401 256.747 168.919 257.115 168.895 257.088C168.871 257.061 169.308 256.643 170.118 255.908C171.001 255.124 172.168 254.087 173.581 252.833C176.52 250.253 180.604 246.715 185.137 242.831C187.404 240.898 189.564 239.056 191.539 237.372C192.033 236.954 192.516 236.546 192.985 236.149C193.507 235.712 194.245 235.559 194.841 235.679C195.982 235.844 197.05 235.999 198.036 236.142C199.92 236.43 201.478 236.667 202.656 236.848C203.745 237.025 204.345 237.14 204.34 237.175Z" fill="#455A64"/>
<path d="M195.288 241.649C195.288 241.649 194.494 241.264 193.395 243.422C192.296 245.58 188.982 251.725 188.982 251.725L185.255 248.17L179.576 247.346C179.576 247.346 178.071 248.115 178.779 248.961C179.487 249.806 182.777 251.397 182.777 251.397L184.3 255.786L177.961 250.196C177.961 250.196 175.337 250.147 175.634 251.841C175.932 253.534 179.564 259.591 179.564 259.591L175.97 258.283L172.347 254.406C172.347 254.406 170.99 254.091 171.17 255.372C171.35 256.654 174.734 262.051 174.734 262.051L179.491 266.268C179.491 266.268 182.563 266.876 183.099 266.073C183.635 265.271 184.062 264.032 184.062 264.032C184.062 264.032 185.779 264.05 186.294 263.359C186.809 262.668 186.961 261.39 186.961 261.39C186.961 261.39 189.343 262.533 190.045 261.224C190.748 259.915 191.258 257.091 191.307 255.946C191.356 254.801 195.477 245.188 195.459 244.858C195.443 244.527 197.044 241.43 195.288 241.649Z" fill="#FFBE9D"/>
<path d="M183.291 266.139C183.291 266.209 182.693 266.294 181.729 266.182C180.768 266.074 179.449 265.72 178.146 264.999C176.845 264.274 175.847 263.34 175.248 262.582C174.644 261.822 174.4 261.27 174.46 261.233C174.604 261.12 175.924 263.121 178.431 264.487C180.914 265.893 183.311 265.957 183.291 266.139Z" fill="#EB996E"/>
<path d="M182.541 263.797C182.42 263.9 181.587 263.115 180.786 261.967C179.982 260.82 179.53 259.769 179.668 259.691C179.81 259.609 180.478 260.509 181.266 261.631C182.051 262.756 182.667 263.692 182.541 263.797Z" fill="#EB996E"/>
<path d="M186.77 259.859C186.651 259.963 185.822 259.192 185.1 258.013C184.373 256.836 184.059 255.749 184.205 255.69C184.358 255.625 184.898 256.573 185.599 257.706C186.295 258.842 186.897 259.752 186.77 259.859Z" fill="#EB996E"/>
<path d="M190.892 256.886C190.724 256.908 190.46 255.719 189.903 254.348C189.357 252.973 188.725 251.932 188.861 251.831C188.98 251.733 189.866 252.672 190.447 254.129C191.036 255.584 191.045 256.875 190.892 256.886Z" fill="#EB996E"/>
<path d="M147.914 237.709C141.159 237.475 126.941 217.883 127.029 211.125L127.556 170.455C127.35 159.525 133.539 150.294 144.471 150.39L145.481 150.458C155.642 151.142 163.579 159.51 163.715 169.694C163.841 179.169 163.859 189.639 163.457 194.691C162.624 205.148 152.046 206.072 152.046 206.072C152.023 206.072 151.954 208.502 151.88 211.579C151.714 218.493 154.414 237.909 147.503 237.669L147.914 237.709Z" fill="#FFBE9D"/>
<path d="M152.046 206.072C152.046 206.072 145.423 206.015 138.69 201.127C138.69 201.127 141.439 209.216 151.946 208.976L152.046 206.072Z" fill="#EB996E"/>
<path d="M160.174 178.275C160.149 179.066 159.458 179.697 158.631 179.686C157.806 179.675 157.156 179.026 157.181 178.235C157.206 177.444 157.897 176.812 158.722 176.823C159.549 176.834 160.199 177.484 160.174 178.275Z" fill="#263238"/>
<path d="M161.178 174.167C160.98 174.349 159.904 173.435 158.295 173.331C156.69 173.204 155.454 173.952 155.293 173.743C155.213 173.65 155.425 173.311 155.965 172.971C156.496 172.632 157.383 172.328 158.385 172.4C159.386 172.473 160.204 172.898 160.663 173.308C161.132 173.721 161.276 174.085 161.178 174.167Z" fill="#263238"/>
<path d="M145.454 177.949C145.429 178.74 144.738 179.371 143.911 179.36C143.086 179.349 142.436 178.7 142.461 177.909C142.486 177.118 143.177 176.486 144.002 176.497C144.829 176.507 145.479 177.158 145.454 177.949Z" fill="#263238"/>
<path d="M145.387 173.479C145.188 173.661 144.111 172.748 142.503 172.644C140.898 172.517 139.662 173.265 139.5 173.056C139.421 172.963 139.631 172.624 140.172 172.285C140.703 171.946 141.59 171.642 142.592 171.713C143.594 171.786 144.411 172.212 144.871 172.621C145.339 173.034 145.484 173.398 145.387 173.479Z" fill="#263238"/>
<path d="M150.326 186.226C150.325 186.134 151.336 186.029 152.97 185.93C153.384 185.916 153.778 185.86 153.866 185.584C153.983 185.294 153.841 184.84 153.674 184.348C153.355 183.328 153.02 182.259 152.67 181.139C151.283 176.573 150.308 172.83 150.492 172.775C150.677 172.721 151.951 176.378 153.338 180.944C153.67 182.07 153.988 183.142 154.29 184.168C154.414 184.645 154.646 185.193 154.395 185.794C154.264 186.093 153.947 186.296 153.68 186.349C153.411 186.412 153.18 186.401 152.976 186.399C151.338 186.378 150.326 186.318 150.326 186.226Z" fill="#263238"/>
<path d="M145.648 167.458C145.402 167.854 143.87 167.317 141.973 167.149C140.079 166.942 138.472 167.168 138.308 166.732C138.238 166.524 138.583 166.176 139.274 165.889C139.959 165.601 140.997 165.409 142.134 165.521C143.27 165.635 144.25 166.026 144.866 166.443C145.487 166.859 145.758 167.269 145.648 167.458Z" fill="#263238"/>
<path d="M161.051 170.38C160.697 170.728 159.406 170.28 157.831 170.18C156.259 170.033 154.908 170.274 154.621 169.875C154.496 169.683 154.725 169.327 155.326 169.012C155.918 168.697 156.895 168.465 157.976 168.55C159.058 168.636 159.979 169.016 160.508 169.419C161.045 169.823 161.208 170.21 161.051 170.38Z" fill="#263238"/>
<path d="M127.89 178.262C127.717 178.173 120.842 175.651 120.589 182.822C120.336 189.993 127.588 188.767 127.607 188.562C127.627 188.357 127.89 178.262 127.89 178.262Z" fill="#FFBE9D"/>
<path d="M125.512 185.769C125.481 185.745 125.384 185.852 125.169 185.941C124.96 186.028 124.604 186.08 124.235 185.927C123.487 185.622 122.892 184.397 122.903 183.103C122.908 182.45 123.066 181.833 123.316 181.327C123.554 180.81 123.906 180.455 124.289 180.401C124.672 180.327 124.934 180.564 125.014 180.769C125.103 180.973 125.052 181.115 125.09 181.128C125.109 181.147 125.248 181.013 125.201 180.715C125.176 180.571 125.098 180.399 124.935 180.256C124.768 180.11 124.517 180.03 124.251 180.049C123.697 180.068 123.181 180.559 122.907 181.115C122.603 181.672 122.409 182.365 122.403 183.098C122.398 184.545 123.09 185.923 124.116 186.259C124.616 186.409 125.042 186.271 125.265 186.11C125.493 185.941 125.537 185.782 125.512 185.769Z" fill="#EB996E"/>
<path d="M145.876 186.976C145.778 186.988 145.71 187.377 145.832 188C145.943 188.616 146.341 189.483 147.072 190.14C147.791 190.806 148.571 191.18 149.133 191.406C149.701 191.629 150.075 191.701 150.121 191.609C150.169 191.514 149.874 191.27 149.384 190.934C148.898 190.596 148.211 190.168 147.588 189.588C146.309 188.452 146.108 186.931 145.876 186.976Z" fill="#263238"/>
<path d="M93.8197 311.658L89.1777 340.519L92.5657 364.368L92.7107 369.552L96.1437 394.996C96.1437 394.996 94.8667 418.975 94.2347 424.18C93.6017 429.385 95.8507 502.671 95.8507 502.671L119.17 501.644C119.17 501.644 127.988 392.91 127.954 391.714C127.921 390.518 140.08 310.368 140.08 310.368L93.8197 311.658Z" fill="#263238"/>
<path d="M152.769 316.113C152.769 316.113 152.301 413.78 150.124 419.427C147.947 425.074 86.6758 485.786 86.6758 485.786L67.2788 470.665L116.82 403.994L119.866 310.93L152.769 316.113Z" fill="#263238"/>
<path d="M136.505 341.647C136.637 341.663 133.739 366.326 130.033 396.725C126.326 427.135 123.214 451.767 123.082 451.75C122.95 451.734 125.848 427.077 129.555 396.666C133.261 366.268 136.373 341.631 136.505 341.647Z" fill="#455A64"/>
<path d="M96.1438 394.995C96.1518 394.996 96.1528 395.078 96.1478 395.237C96.1378 395.424 96.1248 395.656 96.1098 395.943C96.0628 396.6 95.9988 397.505 95.9168 398.652C95.7228 401.002 95.5048 404.407 95.2488 408.614C94.7758 417.03 94.3808 428.673 94.4848 441.536C94.5598 454.403 94.9648 466.047 95.1838 474.478C95.2818 478.664 95.3608 482.066 95.4168 484.463C95.4298 485.613 95.4408 486.52 95.4478 487.179C95.4458 487.466 95.4448 487.698 95.4438 487.885C95.4398 488.044 95.4338 488.126 95.4258 488.126C95.4178 488.126 95.4068 488.045 95.3948 487.886C95.3838 487.699 95.3688 487.467 95.3508 487.181C95.3218 486.523 95.2808 485.617 95.2298 484.468C95.1368 482.072 95.0058 478.673 94.8438 474.489C94.5378 466.062 94.0798 454.416 94.0038 441.539C93.8998 428.667 94.3488 417.011 94.9088 408.594C95.2078 404.386 95.4778 400.983 95.7298 398.637C95.8498 397.493 95.9438 396.59 96.0128 395.935C96.0478 395.65 96.0758 395.419 96.0988 395.234C96.1198 395.075 96.1358 394.994 96.1438 394.995Z" fill="#455A64"/>
<path d="M119.721 339.583C119.78 339.702 115.535 341.939 110.239 344.579C104.942 347.22 100.601 349.263 100.542 349.144C100.483 349.025 104.727 346.789 110.025 344.148C115.32 341.508 119.662 339.464 119.721 339.583Z" fill="#455A64"/>
<path d="M166.688 264.025L178.397 274.554C178.397 274.554 160.068 294.573 154.405 299.002C148.742 303.43 156.217 268.789 156.217 268.789L166.688 264.025Z" fill="#FF725E"/>
<path d="M126.926 201.413L122.057 208.162L103.105 215.172L94.509 279.617L89.085 337.16C89.085 337.16 96.67 326.339 102.477 326.187C108.284 326.035 137.67 334.249 139.657 335.75L143.538 322.72L146.682 337.805C146.682 337.805 152.2 339.049 155.082 330.798L153.859 302.202C153.859 302.202 157.741 250.645 157.524 242.87C157.307 235.095 152.047 213.504 152.047 213.504L150.087 219.87L133.022 205.317L126.926 201.413Z" fill="#FF725E"/>
<path d="M108.581 213.207C108.581 213.207 96.1301 213.165 92.1051 236.231C88.0801 259.297 82.2871 284.043 85.2681 293.297C88.2491 302.551 99.9471 329.209 99.9471 329.209L115.989 323.427L109.409 281.561L117.025 240.588C117.025 240.588 117.965 214.891 108.581 213.207Z" fill="#FF725E"/>
<path d="M122.897 332.677C122.897 332.677 115.254 323.685 114.672 323.902L101.968 328.481C101.968 328.481 101.497 332.981 102.055 338.29C102.549 342.985 103.358 348.01 103.358 348.01L120.065 339.1C120.065 339.1 120.769 342.581 121.698 344.523C122.627 346.466 125.851 344.407 125.851 344.407L122.897 332.677Z" fill="#FFBE9D"/>
<path d="M117.024 240.588C117.024 240.588 116.996 240.839 116.915 241.323C116.828 241.823 116.705 242.537 116.544 243.465C116.203 245.361 115.707 248.126 115.07 251.667C113.766 258.788 111.891 269.031 109.59 281.595L109.591 281.532C111.478 293.454 113.739 307.737 116.217 323.39L116.247 323.579L116.066 323.644C110.934 325.496 105.544 327.441 100.027 329.432L99.815 329.509L99.726 329.303C98.098 325.526 96.376 321.53 94.63 317.481C91.566 310.23 88.587 303.144 86.017 296.17C85.69 295.301 85.403 294.419 85.104 293.546C84.963 293.106 84.877 292.642 84.762 292.193C84.646 291.742 84.542 291.29 84.508 290.831C84.397 289.918 84.273 289.009 84.27 288.102C84.229 287.195 84.201 286.293 84.243 285.398C84.32 281.814 84.675 278.325 85.128 274.943C86.009 268.171 87.207 261.798 88.299 255.832C89.411 249.872 90.447 244.32 91.394 239.25C91.826 236.711 92.331 234.3 92.835 232.026C93.158 230.907 93.472 229.82 93.776 228.765C94.133 227.728 94.531 226.74 94.887 225.777C96.465 221.981 98.5 218.982 100.638 217.019C102.759 215.029 104.852 214.044 106.3 213.601C107.028 213.374 107.604 213.282 107.991 213.232C108.175 213.218 108.319 213.208 108.431 213.199C108.53 213.199 108.58 213.206 108.58 213.206C108.58 213.206 108.381 213.226 107.997 213.281C107.615 213.347 107.046 213.454 106.329 213.694C104.902 214.163 102.846 215.166 100.766 217.156C98.67 219.12 96.678 222.104 95.135 225.882C94.787 226.842 94.398 227.824 94.049 228.856C93.752 229.906 93.446 230.988 93.131 232.102C92.642 234.366 92.15 236.764 91.728 239.312C90.799 244.386 89.782 249.942 88.691 255.906C87.616 261.872 86.434 268.245 85.568 275.001C85.123 278.376 84.775 281.853 84.703 285.407C84.663 286.296 84.692 287.187 84.733 288.082C84.736 288.981 84.86 289.87 84.969 290.764C85.003 291.216 85.105 291.653 85.218 292.089C85.331 292.525 85.411 292.967 85.551 293.402C85.849 294.269 86.134 295.143 86.462 296.01C89.031 302.961 92.013 310.047 95.075 317.294C96.819 321.342 98.539 325.337 100.166 329.112L99.866 328.983C105.385 326.996 110.776 325.056 115.91 323.208L115.759 323.462C113.316 307.803 111.086 293.515 109.225 281.589L109.22 281.557L109.226 281.526C111.593 268.975 113.524 258.741 114.866 251.628C115.545 248.094 116.075 245.337 116.438 243.444C116.622 242.519 116.763 241.809 116.862 241.311C116.96 240.832 117.024 240.588 117.024 240.588Z" fill="#263238"/>
<path d="M150.085 219.871C150.107 219.883 149.976 220.181 149.713 220.726C149.411 221.331 149.023 222.109 148.55 223.057C147.487 225.112 146.046 227.9 144.361 231.158L144.198 231.474L143.986 231.184C142.495 229.141 140.784 226.928 138.904 224.671C135.217 220.231 131.559 216.488 128.822 213.878C127.458 212.567 126.326 211.535 125.548 210.818C124.764 210.107 124.34 209.701 124.361 209.676C124.382 209.651 124.847 210.008 125.671 210.677C126.488 211.352 127.657 212.347 129.055 213.63C131.859 216.183 135.572 219.904 139.274 224.363C141.162 226.629 142.869 228.859 144.345 230.925L143.97 230.951C145.717 227.726 147.211 224.966 148.313 222.931C148.831 222.007 149.256 221.249 149.587 220.658C149.89 220.136 150.063 219.86 150.085 219.871Z" fill="#263238"/>
<path d="M154.283 223.309C154.445 223.251 155.249 226.179 154.675 230.081L154.574 230.766L154.234 230.137C154.054 229.803 153.874 229.447 153.705 229.08C152.801 227.049 152.315 225.122 151.816 223.789C151.338 222.446 150.942 221.654 151.006 221.618C151.057 221.588 151.565 222.332 152.133 223.664C152.72 224.986 153.263 226.907 154.143 228.88C154.308 229.238 154.481 229.584 154.652 229.909L154.212 229.965C154.556 228.154 154.464 226.423 154.435 225.236C154.396 224.029 154.235 223.329 154.283 223.309Z" fill="#263238"/>
<path d="M150.902 223.196C150.91 223.196 150.917 223.283 150.923 223.454C150.926 223.652 150.931 223.901 150.935 224.211C150.944 224.876 150.939 225.857 150.922 227.121C150.887 229.647 150.777 233.303 150.53 237.814C150.053 246.839 148.952 259.269 147.823 273.002C146.649 286.721 145.587 299.138 144.814 308.168C144.408 312.638 144.079 316.268 143.847 318.82C143.725 320.049 143.629 321.017 143.56 321.714C143.525 322.022 143.496 322.269 143.473 322.466C143.451 322.635 143.435 322.721 143.427 322.721C143.419 322.72 143.418 322.633 143.424 322.462C143.434 322.264 143.447 322.016 143.463 321.706C143.51 321.007 143.576 320.036 143.66 318.804C143.855 316.249 144.133 312.615 144.474 308.139C145.21 299.106 146.223 286.685 147.342 272.961C148.471 259.227 149.625 246.803 150.189 237.793C150.479 233.288 150.64 229.638 150.733 227.115C150.777 225.881 150.812 224.909 150.837 224.209C150.851 223.9 150.863 223.651 150.872 223.453C150.884 223.283 150.894 223.196 150.902 223.196Z" fill="#263238"/>
<path d="M157.622 245.604C157.755 245.614 157.038 258.357 156.022 274.063C155.005 289.774 154.074 302.498 153.941 302.488C153.808 302.478 154.525 289.737 155.541 274.026C156.557 258.32 157.489 245.593 157.622 245.604Z" fill="#263238"/>
<path d="M120.138 230.189C120.05 230.194 120.052 229.039 119.594 227.267C119.149 225.507 118.134 223.123 116.252 221.073C114.368 219.023 112.079 217.809 110.363 217.217C108.637 216.611 107.486 216.514 107.499 216.427C107.502 216.397 107.79 216.391 108.309 216.443C108.827 216.494 109.574 216.625 110.47 216.893C112.254 217.415 114.654 218.621 116.607 220.747C118.559 222.873 119.557 225.367 119.925 227.188C120.116 228.104 120.184 228.859 120.191 229.379C120.199 229.902 120.168 230.189 120.138 230.189Z" fill="#263238"/>
<g opacity="0.3">
<path d="M154.598 298.61C158.107 289.136 158.658 278.626 156.359 268.789C155.728 278.807 155.204 288.824 154.573 298.842" fill="black"/>
</g>
<g opacity="0.3">
<path d="M116.361 244.158C112.251 265.505 108.914 285.758 109.38 282.957L115.99 323.427L119.892 329.209C116.494 302.048 113.69 271.208 116.361 244.158Z" fill="black"/>
</g>
<path d="M171.178 157.476C171.116 156.094 170.252 154.804 169.053 154.131C169.072 153.716 169.062 153.314 169.009 152.934C168.667 150.526 166.529 148.411 164.097 148.375C163.835 146.519 162.483 144.858 160.718 144.224C158.954 143.59 156.854 144.012 155.47 145.277C153.806 143.59 151.1 143.03 148.903 143.92C148.627 144.032 148.348 144.174 148.177 144.417C148.065 144.577 148.026 144.789 148.067 144.976C147.483 143.868 146.335 143.068 145.087 142.937C144.661 142.892 144.232 142.933 143.818 143.034C142.678 143.079 141.567 143.494 140.773 144.33C137.98 143.106 134.339 144.42 132.972 147.146C130.619 147.107 128.32 148.656 127.473 150.852C125.959 150.871 124.485 151.747 123.744 153.068C123.003 154.388 123.023 156.103 123.795 157.405C123.795 157.405 118.689 158.196 119.68 162.773C120.186 165.111 123.294 164.929 123.294 164.929L126.134 179.699C126.067 179.767 126.918 181.531 127.808 181.226C128.698 180.921 129.253 180.063 129.808 179.303C130.443 178.432 131.178 177.597 131.511 176.572C131.844 175.546 131.642 174.243 130.722 173.681C131.99 173.358 132.879 172.15 133.203 170.881C133.527 169.613 133.39 168.278 133.251 166.976C133.045 165.055 132.839 163.134 132.634 161.213C135.24 161.331 137.855 159.864 139.113 157.578C140.871 159.143 144.041 158.598 145.175 156.534C145.827 159.165 148.822 160.96 151.449 160.295C151.061 161.761 153.631 163.327 155.065 163.821C156.499 164.315 158.403 163.411 158.403 163.411C158.403 163.411 159.905 164.444 161.233 164.657C161.285 164.665 161.336 164.674 161.388 164.68C163.402 165.019 165.51 163.317 166.617 161.604C167.136 161.686 167.667 161.68 168.178 161.547C169.941 161.086 171.26 159.297 171.178 157.476Z" fill="#263238"/>
<path d="M112.775 264.895C112.738 264.969 111.43 264.353 109.274 263.468C107.119 262.581 104.098 261.463 100.675 260.513C97.249 259.568 94.083 258.975 91.778 258.628C89.474 258.28 88.035 258.135 88.041 258.053C88.044 258.017 88.406 258.014 89.061 258.039C89.716 258.06 90.662 258.134 91.826 258.263C94.155 258.518 97.36 259.059 100.813 260.011C104.264 260.969 107.291 262.151 109.419 263.13C110.484 263.618 111.333 264.041 111.906 264.359C112.481 264.674 112.791 264.863 112.775 264.895Z" fill="white"/>
<path d="M103.642 327.461C103.634 327.464 103.591 327.376 103.515 327.201C103.431 326.997 103.324 326.739 103.191 326.418C102.904 325.69 102.504 324.676 101.995 323.387C100.977 320.747 99.5049 316.924 97.8859 312.127C96.2769 307.331 94.5019 301.546 93.2769 294.95C92.6689 291.655 92.1869 288.158 92.0029 284.51C91.8199 280.862 91.9089 277.07 92.3109 273.221C93.0899 265.51 94.7799 258.318 96.3079 251.81C97.8569 245.3 99.3799 239.468 100.728 234.591C102.076 229.714 103.239 225.787 104.07 223.083C104.486 221.762 104.814 220.722 105.049 219.976C105.16 219.646 105.248 219.381 105.319 219.173C105.382 218.993 105.419 218.902 105.428 218.904C105.437 218.907 105.417 219.003 105.37 219.188C105.313 219.401 105.24 219.67 105.15 220.006C104.937 220.759 104.641 221.808 104.265 223.141C103.494 225.862 102.385 229.802 101.084 234.688C99.7819 239.574 98.2979 245.41 96.7759 251.921C95.2739 258.431 93.6039 265.608 92.8299 273.274C92.4309 277.102 92.3389 280.863 92.5129 284.485C92.6889 288.108 93.1569 291.584 93.7499 294.865C94.9429 301.432 96.6749 307.21 98.2369 312.012C99.8079 316.816 101.226 320.656 102.186 323.317C102.655 324.62 103.025 325.646 103.29 326.382C103.403 326.711 103.494 326.975 103.566 327.184C103.624 327.363 103.65 327.457 103.642 327.461Z" fill="white"/>
<path d="M111.154 297.383C111.167 297.417 110.884 297.558 110.359 297.786C109.836 298.017 109.064 298.317 108.101 298.658C106.175 299.342 103.457 300.146 100.393 300.755C97.3272 301.36 94.5082 301.653 92.4672 301.755C91.4462 301.807 90.6192 301.823 90.0472 301.81C89.4752 301.799 89.1592 301.776 89.1582 301.74C89.1562 301.66 90.4152 301.584 92.4392 301.388C94.4632 301.193 97.2502 300.845 100.292 300.245C103.332 299.641 106.041 298.9 107.986 298.309C109.932 297.719 111.125 297.309 111.154 297.383Z" fill="white"/>
<path d="M119.661 233.99C119.576 234.049 118.77 232.79 117.114 231.073C116.294 230.208 115.225 229.271 113.968 228.328C112.692 227.41 111.216 226.502 109.574 225.73C107.922 224.978 106.274 224.44 104.748 224.061C103.215 223.713 101.809 223.505 100.619 223.439C98.2391 223.288 96.7581 223.487 96.7481 223.385C96.7431 223.349 97.1091 223.283 97.7791 223.194C98.1141 223.144 98.5251 223.097 99.0051 223.089C99.4851 223.075 100.032 223.029 100.637 223.072C101.848 223.091 103.286 223.264 104.856 223.594C106.418 223.954 108.106 224.49 109.793 225.258C111.47 226.047 112.97 226.987 114.256 227.945C115.523 228.928 116.585 229.912 117.384 230.823C117.807 231.256 118.127 231.704 118.427 232.078C118.732 232.45 118.962 232.793 119.14 233.081C119.505 233.649 119.691 233.971 119.661 233.99Z" fill="white"/>
<path d="M128.224 331.006C128.215 331.006 128.208 330.897 128.204 330.683C128.202 330.442 128.2 330.13 128.197 329.737C128.203 328.871 128.21 327.653 128.22 326.101C128.264 322.909 128.326 318.35 128.403 312.731C128.609 301.413 128.892 285.833 129.205 268.625C129.361 260.01 129.48 251.805 129.207 244.352C129.079 240.626 128.839 237.09 128.518 233.792C128.201 230.495 127.766 227.434 127.026 224.724C126.3 222.012 125.27 219.664 124.054 217.799C122.849 215.924 121.497 214.528 120.278 213.546C119.051 212.566 117.967 211.986 117.216 211.642C116.465 211.294 116.045 211.166 116.055 211.138C116.055 211.138 116.487 211.227 117.258 211.546C118.028 211.861 119.141 212.419 120.403 213.387C121.658 214.358 123.051 215.753 124.297 217.64C125.555 219.517 126.624 221.892 127.381 224.627C128.152 227.361 128.611 230.444 128.948 233.749C129.289 237.056 129.545 240.6 129.687 244.335C129.988 251.804 129.882 260.021 129.727 268.633C129.355 285.841 129.017 301.42 128.773 312.737C128.626 318.355 128.507 322.913 128.424 326.104C128.372 327.655 128.332 328.873 128.303 329.738C128.285 330.13 128.27 330.442 128.258 330.683C128.244 330.897 128.233 331.006 128.224 331.006Z" fill="white"/>
<path d="M144.368 309.693C144.362 309.728 143.912 309.682 143.103 309.567C142.294 309.453 141.128 309.266 139.69 309.021C136.813 308.53 132.849 307.793 128.489 306.892C124.127 305.99 120.195 305.097 117.359 304.407C115.941 304.062 114.797 303.771 114.009 303.556C113.221 303.341 112.79 303.206 112.798 303.171C112.806 303.136 113.253 303.205 114.055 303.359C114.958 303.543 116.092 303.774 117.44 304.049C120.402 304.669 124.292 305.483 128.594 306.383C132.899 307.261 136.793 308.055 139.758 308.66C141.105 308.942 142.237 309.18 143.139 309.369C143.937 309.544 144.374 309.658 144.368 309.693Z" fill="white"/>
<path d="M147.077 273.831C147.066 273.974 139.038 273.49 129.147 272.75C119.253 272.009 111.244 271.293 111.254 271.149C111.265 271.006 119.291 271.49 129.186 272.23C139.077 272.971 147.088 273.688 147.077 273.831Z" fill="white"/>
<path d="M149.703 242.266C149.705 242.302 149.246 242.358 148.413 242.429C147.581 242.501 146.375 242.58 144.883 242.655C141.9 242.807 137.774 242.925 133.216 242.899C128.657 242.871 124.532 242.704 121.551 242.516C120.06 242.423 118.856 242.33 118.024 242.248C117.192 242.167 116.734 242.105 116.736 242.07C116.738 242.034 117.201 242.027 118.036 242.046C118.974 242.073 120.158 242.108 121.568 242.149C124.549 242.243 128.668 242.351 133.219 242.379C137.768 242.405 141.888 242.345 144.87 242.287C146.281 242.263 147.464 242.242 148.403 242.226C149.238 242.218 149.701 242.23 149.703 242.266Z" fill="white"/>
<path d="M128.408 212.794C128.418 212.872 127.495 213.036 126.019 213.35C124.543 213.662 122.518 214.15 120.33 214.853C118.143 215.559 116.213 216.345 114.832 216.953C113.451 217.56 112.605 217.965 112.568 217.896C112.536 217.839 113.322 217.318 114.674 216.621C116.025 215.923 117.956 215.073 120.17 214.358C122.384 213.647 124.448 213.21 125.953 212.989C127.459 212.765 128.401 212.73 128.408 212.794Z" fill="white"/>
<path d="M148.435 224.093C148.409 224.118 148.082 223.836 147.512 223.305C146.867 222.696 146.065 221.94 145.114 221.043C143.093 219.131 140.279 216.513 137.095 213.707C133.908 210.902 130.955 208.443 128.802 206.679C127.792 205.849 126.94 205.15 126.255 204.587C125.656 204.089 125.335 203.8 125.357 203.771C125.379 203.742 125.741 203.977 126.379 204.426C127.018 204.873 127.925 205.544 129.032 206.391C131.247 208.083 134.245 210.505 137.44 213.316C140.632 216.129 143.413 218.796 145.372 220.779C146.352 221.77 147.132 222.585 147.656 223.162C148.182 223.738 148.461 224.068 148.435 224.093Z" fill="white"/>
<path d="M141.88 213.298C141.986 213.395 140.624 215.061 138.837 217.018C137.05 218.976 135.515 220.484 135.409 220.387C135.303 220.29 136.665 218.625 138.452 216.667C140.238 214.709 141.773 213.201 141.88 213.298Z" fill="white"/>
<path d="M157.603 242.846C157.578 242.993 155.941 242.821 153.923 242.736C151.905 242.644 150.259 242.671 150.247 242.522C150.233 242.384 151.889 242.122 153.946 242.215C156.002 242.303 157.629 242.71 157.603 242.846Z" fill="white"/>
<path d="M155.241 276.208C155.238 276.352 153.561 276.429 151.498 276.381C149.434 276.333 147.763 276.177 147.767 276.033C147.77 275.889 149.446 275.812 151.511 275.86C153.574 275.909 155.245 276.064 155.241 276.208Z" fill="white"/>
<path d="M154.575 230.767C154.584 230.767 154.593 230.859 154.601 231.04C154.608 231.25 154.616 231.514 154.626 231.841C154.637 232.584 154.652 233.614 154.671 234.92C154.696 236.257 154.679 237.893 154.65 239.793C154.634 241.693 154.591 243.855 154.506 246.245C154.237 255.806 153.422 268.994 152.394 283.544C151.367 298.099 150.481 311.275 150.112 320.825C150.004 323.212 149.93 325.372 149.888 327.269C149.833 329.166 149.781 330.8 149.776 332.136C149.754 333.441 149.736 334.47 149.723 335.213C149.712 335.54 149.703 335.803 149.696 336.014C149.687 336.194 149.678 336.287 149.669 336.287C149.66 336.287 149.651 336.195 149.643 336.014C149.636 335.804 149.628 335.54 149.618 335.214C149.607 334.471 149.592 333.441 149.573 332.135C149.547 330.798 149.569 329.162 149.596 327.263C149.61 325.363 149.659 323.201 149.744 320.811C150.019 311.25 150.847 298.062 151.874 283.507C152.903 268.958 153.775 255.782 154.138 246.232C154.247 243.845 154.315 241.685 154.359 239.787C154.416 237.89 154.463 236.255 154.469 234.919C154.492 233.614 154.509 232.584 154.522 231.841C154.533 231.514 154.542 231.251 154.549 231.04C154.557 230.859 154.566 230.767 154.575 230.767Z" fill="white"/>
<path d="M154.077 309.554C154.103 309.696 151.992 310.202 149.361 310.685C146.73 311.168 144.577 311.445 144.551 311.304C144.525 311.163 146.636 310.656 149.267 310.173C151.898 309.689 154.052 309.412 154.077 309.554Z" fill="white"/>
<path d="M172.913 270.064C172.95 270.131 171.928 270.755 170.289 271.777C168.65 272.798 166.402 274.233 163.983 275.909C161.564 277.588 159.433 279.191 157.902 280.369C156.371 281.546 155.429 282.284 155.379 282.226C155.335 282.175 156.193 281.337 157.671 280.082C159.147 278.827 161.255 277.169 163.686 275.481C166.118 273.796 168.409 272.403 170.102 271.46C171.794 270.515 172.88 270.004 172.913 270.064Z" fill="white"/>
<path d="M169.715 283.482C169.647 283.515 169.143 282.625 168.326 281.19C167.51 279.754 166.37 277.782 165.038 275.647C163.704 273.512 162.433 271.621 161.501 270.258C160.57 268.895 159.991 268.05 160.051 268.004C160.105 267.962 160.788 268.728 161.799 270.042C162.81 271.355 164.138 273.225 165.479 275.371C166.818 277.518 167.915 279.532 168.65 281.017C169.388 282.502 169.777 283.452 169.715 283.482Z" fill="white"/>
<path d="M462.528 519.361C462.528 519.505 367.368 519.621 250.01 519.621C132.611 519.621 37.4722 519.504 37.4722 519.361C37.4722 519.218 132.611 519.101 250.01 519.101C367.368 519.1 462.528 519.217 462.528 519.361Z" fill="#263238"/>
<rect x="21" y="5" width="43.2362" height="43.2362" rx="10" fill="white"/>
<path d="M48.7682 26.6927C50.2343 26.966 51.4394 27.6991 52.3837 28.8918C53.3279 30.0845 53.8 31.4512 53.8 32.9918C53.8 34.3833 53.4522 35.6133 52.7564 36.6817C52.0855 37.7254 51.104 38.5454 49.8119 39.1417C48.5198 39.7381 46.9916 40.0363 45.2273 40.0363H34.0083V14.02H44.7428C46.507 14.02 48.0228 14.3058 49.2901 14.8773C50.5822 15.4488 51.5513 16.2439 52.1973 17.2627C52.8682 18.2815 53.2037 19.437 53.2037 20.7291C53.2037 22.2448 52.7937 23.5121 51.9737 24.5309C51.1785 25.5497 50.1101 26.2703 48.7682 26.6927ZM39.2265 24.7545H43.9974C45.2398 24.7545 46.1964 24.4812 46.8673 23.9345C47.5382 23.363 47.8737 22.5554 47.8737 21.5118C47.8737 20.4682 47.5382 19.6606 46.8673 19.0891C46.1964 18.5176 45.2398 18.2318 43.9974 18.2318H39.2265V24.7545ZM44.4819 35.7872C45.7492 35.7872 46.7307 35.489 47.4264 34.8927C48.147 34.2963 48.5073 33.4515 48.5073 32.3581C48.5073 31.2399 48.1346 30.3703 47.3892 29.749C46.6437 29.103 45.6373 28.78 44.3701 28.78H39.2265V35.7872H44.4819Z" fill="#263238"/>
<path d="M77.9524 23.6738C78.5487 22.5059 79.3936 21.5989 80.4869 20.9529C81.6051 20.3068 82.9593 19.9838 84.5496 19.9838V23.4874H83.6551C79.8533 23.4874 77.9524 25.5498 77.9524 29.6747V40.7819H74.5605V20.3565H77.9524V23.6738Z" fill="white"/>
<path d="M87.1977 30.4947C87.1977 28.4074 87.6201 26.5811 88.465 25.0156C89.3098 23.4253 90.4653 22.1953 91.9313 21.3256C93.4222 20.4559 95.0746 20.0211 96.8886 20.0211C98.6777 20.0211 100.231 20.4062 101.548 21.1765C102.865 21.9468 103.846 22.9159 104.492 24.0838V20.3565H107.921V40.7819H104.492V36.9801C103.821 38.1728 102.815 39.1668 101.473 39.9619C100.156 40.7322 98.6155 41.1174 96.8513 41.1174C95.0374 41.1174 93.3974 40.6701 91.9313 39.7755C90.4653 38.881 89.3098 37.6262 88.465 36.011C87.6201 34.3959 87.1977 32.5571 87.1977 30.4947ZM104.492 30.5319C104.492 28.9913 104.182 27.6495 103.56 26.5065C102.939 25.3635 102.094 24.4938 101.026 23.8974C99.9822 23.2762 98.8267 22.9656 97.5595 22.9656C96.2922 22.9656 95.1368 23.2638 94.0931 23.8602C93.0495 24.4565 92.2171 25.3262 91.5959 26.4692C90.9747 27.6123 90.664 28.9541 90.664 30.4947C90.664 32.0601 90.9747 33.4268 91.5959 34.5947C92.2171 35.7377 93.0495 36.6198 94.0931 37.241C95.1368 37.8374 96.2922 38.1355 97.5595 38.1355C98.8267 38.1355 99.9822 37.8374 101.026 37.241C102.094 36.6198 102.939 35.7377 103.56 34.5947C104.182 33.4268 104.492 32.0725 104.492 30.5319Z" fill="white"/>
<path d="M123.605 19.9838C126.09 19.9838 128.102 20.7417 129.643 22.2574C131.184 23.7483 131.954 25.9101 131.954 28.7429V40.7819H128.599V29.2274C128.599 27.1898 128.09 25.6368 127.071 24.5683C126.052 23.475 124.661 22.9283 122.897 22.9283C121.108 22.9283 119.679 23.4874 118.61 24.6056C117.567 25.7238 117.045 27.3513 117.045 29.4883V40.7819H113.653V20.3565H117.045V23.2638C117.716 22.2202 118.623 21.4126 119.766 20.8411C120.934 20.2696 122.213 19.9838 123.605 19.9838Z" fill="white"/>
<path d="M136.227 30.4947C136.227 28.4074 136.65 26.5811 137.494 25.0156C138.339 23.4253 139.495 22.1953 140.961 21.3256C142.452 20.4559 144.117 20.0211 145.955 20.0211C147.546 20.0211 149.024 20.3938 150.391 21.1393C151.757 21.8599 152.801 22.8165 153.522 24.0092V13.2002H156.951V40.7819H153.522V36.9428C152.851 38.1604 151.857 39.1668 150.54 39.9619C149.223 40.7322 147.682 41.1174 145.918 41.1174C144.104 41.1174 142.452 40.6701 140.961 39.7755C139.495 38.881 138.339 37.6262 137.494 36.011C136.65 34.3959 136.227 32.5571 136.227 30.4947ZM153.522 30.5319C153.522 28.9913 153.211 27.6495 152.59 26.5065C151.969 25.3635 151.124 24.4938 150.055 23.8974C149.012 23.2762 147.856 22.9656 146.589 22.9656C145.322 22.9656 144.166 23.2638 143.123 23.8602C142.079 24.4565 141.247 25.3262 140.625 26.4692C140.004 27.6123 139.693 28.9541 139.693 30.4947C139.693 32.0601 140.004 33.4268 140.625 34.5947C141.247 35.7377 142.079 36.6198 143.123 37.241C144.166 37.8374 145.322 38.1355 146.589 38.1355C147.856 38.1355 149.012 37.8374 150.055 37.241C151.124 36.6198 151.969 35.7377 152.59 34.5947C153.211 33.4268 153.522 32.0725 153.522 30.5319Z" fill="white"/>
<path d="M163.763 41.0055C163.117 41.0055 162.571 40.7819 162.123 40.3346C161.676 39.8874 161.453 39.3407 161.453 38.6946C161.453 38.0486 161.676 37.5019 162.123 37.0546C162.571 36.6074 163.117 36.3837 163.763 36.3837C164.385 36.3837 164.906 36.6074 165.329 37.0546C165.776 37.5019 166 38.0486 166 38.6946C166 39.3407 165.776 39.8874 165.329 40.3346C164.906 40.7819 164.385 41.0055 163.763 41.0055Z" fill="white"/>
</svg>
